<?xml version="1.0" encoding="UTF-8" standalone="no"?>
<svg
   xmlns:dc="http://purl.org/dc/elements/1.1/"
   xmlns:cc="http://creativecommons.org/ns#"
   xmlns:rdf="http://www.w3.org/1999/02/22-rdf-syntax-ns#"
   xmlns:svg="http://www.w3.org/2000/svg"
   xmlns="http://www.w3.org/2000/svg"
   xmlns:xlink="http://www.w3.org/1999/xlink"
   xmlns:sodipodi="http://sodipodi.sourceforge.net/DTD/sodipodi-0.dtd"
   xmlns:inkscape="http://www.inkscape.org/namespaces/inkscape"
   version="1.2"
   width="201.47466mm"
   height="51.138123mm"
   viewBox="0 0 114.65021 29.100416"
   id="svg2"
   inkscape:version="0.91 r13725"
   sodipodi:docname="Whatsit.svg">
  <metadata
     id="metadata564">
    <rdf:RDF>
      <cc:Work
         rdf:about="">
        <dc:format>image/svg+xml</dc:format>
        <dc:type
           rdf:resource="http://purl.org/dc/dcmitype/StillImage" />
        <dc:title></dc:title>
      </cc:Work>
    </rdf:RDF>
  </metadata>
  <defs
     id="defs562" />
  <sodipodi:namedview
     pagecolor="#ffffff"
     bordercolor="#666666"
     borderopacity="1"
     objecttolerance="10"
     gridtolerance="10"
     guidetolerance="10"
     inkscape:pageopacity="0"
     inkscape:pageshadow="2"
     inkscape:window-width="1627"
     inkscape:window-height="1249"
     id="namedview560"
     showgrid="false"
     fit-margin-top="5"
     fit-margin-right="5"
     fit-margin-bottom="5"
     fit-margin-left="5"
     inkscape:zoom="1.2685914"
     inkscape:cx="410.42863"
     inkscape:cy="12.160882"
     inkscape:window-x="0"
     inkscape:window-y="0"
     inkscape:window-maximized="0"
     inkscape:current-layer="svg2" />
  <!-- Page: 1/1 -->
  <text
     font-size="2.2001"
     id="text4"
     style="font-size:2.20009995px;font-family:'Century Schoolbook L';text-anchor:start;fill:currentColor"
     x="3.6837189"
     y="1.825976">
    <tspan
       id="tspan6" />
  </text>
  <a
     style="color:inherit"
     xlink:href="textedit:///Users/ggeoffroy/Documents/geoffroy.re/images/Whatsit.ly:7:2:3"
     id="a144"
     transform="translate(-2.006881,-1.0193239)">
    <g
       transform="translate(21.7685,7.0309)"
       style="font-size:2.20009995px;font-family:'Century Schoolbook L';text-anchor:start;fill:currentColor"
       id="text150" />
  </a>
  <g
     id="g4798"
     transform="translate(-2.006881,-1.0193239)">
    <path
       id="rect8"
       d="m 0,-2 0.19,0 0,4 L 0,2 Z"
       style="fill:currentColor"
       transform="translate(113.621,9.8826)"
       inkscape:connector-curvature="0" />
    <path
       id="rect10"
       d="m 0,-2 0.19,0 0,4 L 0,2 Z"
       style="fill:currentColor"
       transform="translate(61.2843,9.8826)"
       inkscape:connector-curvature="0" />
    <path
       id="rect12"
       d="m 39.261499,-0.1 1.7743,0 c 0.0554,0 0.1,0.0446 0.1,0.1 0,0.0554 -0.0446,0.1 -0.1,0.1 l -1.7743,0 c -0.0554,0 -0.1,-0.0446 -0.1,-0.1 0,-0.0554 0.0446,-0.1 0.1,-0.1 z"
       style="fill:currentColor"
       transform="translate(5.6906,12.8826)"
       inkscape:connector-curvature="0" />
    <path
       id="rect14"
       d="m 75.730096,-0.1 1.7743,0 c 0.0554,0 0.1,0.0446 0.1,0.1 0,0.0554 -0.0446,0.1 -0.1,0.1 l -1.7743,0 c -0.0554,0 -0.1,-0.0446 -0.1,-0.1 0,-0.0554 0.0446,-0.1 0.1,-0.1 z"
       style="fill:currentColor"
       transform="translate(5.6906,12.8826)"
       inkscape:connector-curvature="0" />
    <path
       id="rect16"
       d="m 82.340601,-0.1 1.7743,0 c 0.0554,0 0.1,0.0446 0.1,0.1 0,0.0554 -0.0446,0.1 -0.1,0.1 l -1.7743,0 c -0.0554,0 -0.1,-0.0446 -0.1,-0.1 0,-0.0554 0.0446,-0.1 0.1,-0.1 z"
       style="fill:currentColor"
       transform="translate(5.6906,12.8826)"
       inkscape:connector-curvature="0" />
    <path
       id="rect18"
       d="m 91.598199,-0.1 1.7743,0 c 0.0554,0 0.1,0.0446 0.1,0.1 0,0.0554 -0.0446,0.1 -0.1,0.1 l -1.7743,0 c -0.0554,0 -0.1,-0.0446 -0.1,-0.1 0,-0.0554 0.0446,-0.1 0.1,-0.1 z"
       style="fill:currentColor"
       transform="translate(5.6906,12.8826)"
       inkscape:connector-curvature="0" />
    <path
       id="line20"
       d="M 0.05,0 99.534599,0"
       style="stroke:currentColor;stroke-width:0.1;stroke-linecap:round;stroke-linejoin:round"
       transform="translate(14.2264,11.8826)"
       inkscape:connector-curvature="0" />
    <path
       id="line22"
       d="M 0.05,0 99.534599,0"
       style="stroke:currentColor;stroke-width:0.1;stroke-linecap:round;stroke-linejoin:round"
       transform="translate(14.2264,10.8826)"
       inkscape:connector-curvature="0" />
    <path
       id="line24"
       d="M 0.05,0 99.534599,0"
       style="stroke:currentColor;stroke-width:0.1;stroke-linecap:round;stroke-linejoin:round"
       transform="translate(14.2264,9.8826)"
       inkscape:connector-curvature="0" />
    <path
       id="line26"
       d="M 0.05,0 99.534599,0"
       style="stroke:currentColor;stroke-width:0.1;stroke-linecap:round;stroke-linejoin:round"
       transform="translate(14.2264,8.8826)"
       inkscape:connector-curvature="0" />
    <path
       id="line28"
       d="M 0.05,0 99.534599,0"
       style="stroke:currentColor;stroke-width:0.1;stroke-linecap:round;stroke-linejoin:round"
       transform="translate(14.2264,7.8826)"
       inkscape:connector-curvature="0" />
    <path
       id="rect30"
       d="m -0.025,-0.94029999 0.05,0 c 0.02216,0 0.04,0.01784 0.04,0.04 l 0,2.17250009 c 0,0.02216 -0.01784,0.04 -0.04,0.04 l -0.05,0 c -0.02216,0 -0.04,-0.01784 -0.04,-0.04 l 0,-2.17250009 c 0,-0.02216 0.01784,-0.04 0.04,-0.04 z"
       style="fill:currentColor"
       transform="translate(54.6089,9.8826)"
       inkscape:connector-curvature="0" />
    <path
       id="path32"
       d="m 204,307 c 22,14 44,29 60,50 11,15 19,33 27,50 2,4 5,6 9,6 6,0 13,-5 13,-14 l 0,-245 72,0 c 10,0 15,-7 15,-14 0,-7 -5,-15 -15,-15 l -72,0 0,-8 c 0,-48 27,-94 72,-94 8,0 12,-5 12,-11 C 397,6 393,0 385,0 341,0 298,13 254,13 210,13 167,0 123,0 c -8,0 -12,6 -12,12 0,6 4,11 12,11 45,0 73,46 73,94 l 0,8 -167,0 c -23,0 -31,14 -31,23 0,3 1,5 2,6 80,93 138,207 138,330 0,9 6,16 13,16 l 3,0 c 23,-7 47,-13 71,-13 24,0 48,6 71,13 2,1 3,1 5,1 11,0 18,-10 12,-17 L 29,154 l 167,0 0,131 c 0,8 1,17 8,22 z"
       transform="matrix(0.004,0,0,-0.004,20.5964,11.8971)"
       inkscape:connector-curvature="0"
       style="fill:currentColor" />
    <path
       id="path34"
       d="m 204,307 c 22,14 44,29 60,50 11,15 19,33 27,50 2,4 5,6 9,6 6,0 13,-5 13,-14 l 0,-245 72,0 c 10,0 15,-7 15,-14 0,-7 -5,-15 -15,-15 l -72,0 0,-8 c 0,-48 27,-94 72,-94 8,0 12,-5 12,-11 C 397,6 393,0 385,0 341,0 298,13 254,13 210,13 167,0 123,0 c -8,0 -12,6 -12,12 0,6 4,11 12,11 45,0 73,46 73,94 l 0,8 -167,0 c -23,0 -31,14 -31,23 0,3 1,5 2,6 80,93 138,207 138,330 0,9 6,16 13,16 l 3,0 c 23,-7 47,-13 71,-13 24,0 48,6 71,13 2,1 3,1 5,1 11,0 18,-10 12,-17 L 29,154 l 167,0 0,131 c 0,8 1,17 8,22 z"
       transform="matrix(0.004,0,0,-0.004,20.5964,9.8826)"
       inkscape:connector-curvature="0"
       style="fill:currentColor" />
    <a
       id="a36"
       xlink:href="textedit:///Users/ggeoffroy/Documents/geoffroy.re/images/Whatsit.ly:10:10:11"
       style="color:inherit">
      <path
         id="path38"
         d="m 220,138 c 56,0 109,-29 109,-91 0,-72 -56,-121 -103,-149 -36,-21 -76,-36 -117,-36 -56,0 -109,29 -109,91 0,72 56,121 103,149 36,21 76,36 117,36 z"
         transform="matrix(0.004,0,0,-0.004,57.071,12.3826)"
         inkscape:connector-curvature="0"
         style="fill:currentColor" />
    </a>
    <path
       id="rect40"
       d="m -0.025,-0.99900001 0.05,0 c 0.02216,0 0.04,0.01784 0.04,0.04 l 0,3.23119991 c 0,0.02216 -0.01784,0.04 -0.04,0.04 l -0.05,0 c -0.02216,0 -0.04,-0.01784 -0.04,-0.04 l 0,-3.23119991 c 0,-0.02216 0.01784,-0.04 0.04,-0.04 z"
       style="fill:currentColor"
       transform="translate(58.3222,9.8826)"
       inkscape:connector-curvature="0" />
    <a
       id="a42"
       xlink:href="textedit:///Users/ggeoffroy/Documents/geoffroy.re/images/Whatsit.ly:10:13:14"
       style="color:inherit">
      <path
         id="path44"
         d="m 220,138 c 56,0 109,-29 109,-91 0,-72 -56,-121 -103,-149 -36,-21 -76,-36 -117,-36 -56,0 -109,29 -109,91 0,72 56,121 103,149 36,21 76,36 117,36 z"
         transform="matrix(0.004,0,0,-0.004,62.917,12.3826)"
         inkscape:connector-curvature="0"
         style="fill:currentColor" />
    </a>
    <a
       id="a46"
       xlink:href="textedit:///Users/ggeoffroy/Documents/geoffroy.re/images/Whatsit.ly:10:15:16"
       style="color:inherit">
      <path
         id="path48"
         d="m 220,138 c 56,0 109,-29 109,-91 0,-72 -56,-121 -103,-149 -36,-21 -76,-36 -117,-36 -56,0 -109,29 -109,91 0,72 56,121 103,149 36,21 76,36 117,36 z"
         transform="matrix(0.004,0,0,-0.004,62.917,11.3826)"
         inkscape:connector-curvature="0"
         style="fill:currentColor" />
    </a>
    <a
       id="a50"
       xlink:href="textedit:///Users/ggeoffroy/Documents/geoffroy.re/images/Whatsit.ly:10:17:18"
       style="color:inherit">
      <path
         id="path52"
         d="m 220,138 c 56,0 109,-29 109,-91 0,-72 -56,-121 -103,-149 -36,-21 -76,-36 -117,-36 -56,0 -109,29 -109,91 0,72 56,121 103,149 36,21 76,36 117,36 z"
         transform="matrix(0.004,0,0,-0.004,62.917,10.3826)"
         inkscape:connector-curvature="0"
         style="fill:currentColor" />
    </a>
    <a
       id="a54"
       xlink:href="textedit:///Users/ggeoffroy/Documents/geoffroy.re/images/Whatsit.ly:10:21:22"
       style="color:inherit">
      <path
         id="path56"
         d="M -50,0 C -50,28 -28,50 0,50 28,50 50,28 50,0 50,-28 28,-50 0,-50 -28,-50 -50,-28 -50,0 Z"
         transform="matrix(0.004,0,0,-0.004,63.5751,13.3326)"
         inkscape:connector-curvature="0"
         style="fill:currentColor" />
    </a>
    <path
       id="path58"
       d="M 0,0 C 0,31 25,56 56,56 87,56 112,31 112,0 112,-31 87,-56 56,-56 25,-56 0,-31 0,0 Z"
       transform="matrix(0.004,0,0,-0.004,64.6832,12.3826)"
       inkscape:connector-curvature="0"
       style="fill:currentColor" />
    <path
       id="rect60"
       d="m -0.025,-2.8099999 0.05,0 c 0.02216,0 0.04,0.01784 0.04,0.04 l 0,5.0422 c 0,0.02216 -0.01784,0.04 -0.04,0.04 l -0.05,0 c -0.02216,0 -0.04,-0.01784 -0.04,-0.04 l 0,-5.0422 c 0,-0.02216 0.01784,-0.04 0.04,-0.04 z"
       style="fill:currentColor"
       transform="translate(64.1682,9.8826)"
       inkscape:connector-curvature="0" />
    <a
       id="a62"
       xlink:href="textedit:///Users/ggeoffroy/Documents/geoffroy.re/images/Whatsit.ly:9:5:6"
       style="color:inherit">
      <path
         id="path64"
         d="m -23,-116 c 0,28 11,42 40,42 33,0 78,-13 119,-31 L 4,53 c -7,9 -10,17 -10,25 0,34 50,66 87,99 25,22 37,52 37,83 0,24 -8,49 -25,69 l -35,42 c -3,3 -4,7 -4,10 0,9 9,15 17,15 4,0 8,-1 11,-5 L 233,211 c 7,-9 10,-17 10,-25 0,-34 -50,-66 -87,-99 -25,-22 -37,-52 -37,-83 0,-24 7,-49 24,-69 l 84,-99 c 3,-3 4,-7 4,-10 0,-9 -8,-16 -16,-16 -4,0 -9,2 -12,6 -18,21 -63,38 -97,38 -41,0 -53,-26 -53,-67 0,-35 11,-74 28,-94 5,-6 0,-13 -6,-13 -2,0 -4,0 -6,2 -45,54 -92,148 -92,202 z"
         transform="matrix(0.004,0,0,-0.004,36.2897,9.8826)"
         inkscape:connector-curvature="0"
         style="fill:currentColor" />
    </a>
    <a
       id="a66"
       xlink:href="textedit:///Users/ggeoffroy/Documents/geoffroy.re/images/Whatsit.ly:9:2:3"
       style="color:inherit">
      <path
         id="path68"
         d="M 365,0 10,0 C 4,0 0,4 0,10 l 0,136 c 0,6 4,10 10,10 l 355,0 c 6,0 10,-4 10,-10 L 375,10 C 375,4 371,0 365,0 Z"
         transform="matrix(0.004,0,0,-0.004,24.2011,9.8826)"
         inkscape:connector-curvature="0"
         style="fill:currentColor" />
    </a>
    <a
       id="a70"
       xlink:href="textedit:///Users/ggeoffroy/Documents/geoffroy.re/images/Whatsit.ly:10:2:3"
       style="color:inherit">
      <path
         id="path72"
         d="m 220,138 c 56,0 109,-29 109,-91 0,-72 -56,-121 -103,-149 -36,-21 -76,-36 -117,-36 -56,0 -109,29 -109,91 0,72 56,121 103,149 36,21 76,36 117,36 z"
         transform="matrix(0.004,0,0,-0.004,45.1811,12.8826)"
         inkscape:connector-curvature="0"
         style="fill:currentColor" />
    </a>
    <path
       id="rect74"
       d="m -0.025,-0.81099999 0.05,0 c 0.02216,0 0.04,0.01784 0.04,0.04 l 0,3.54319999 c 0,0.02216 -0.01784,0.04 -0.04,0.04 l -0.05,0 c -0.02216,0 -0.04,-0.01784 -0.04,-0.04 l 0,-3.54319999 c 0,-0.02216 0.01784,-0.04 0.04,-0.04 z"
       style="fill:currentColor"
       transform="translate(46.4323,9.8826)"
       inkscape:connector-curvature="0" />
    <path
       id="path76"
       d="m 376,262 c 4,0 9,1 13,1 155,0 256,-128 256,-261 0,-76 -33,-154 -107,-210 -22,-17 -47,-28 -73,-36 3,-35 5,-70 5,-105 0,-19 -1,-39 -2,-58 -7,-120 -90,-228 -208,-228 -108,0 -195,88 -195,197 0,58 53,103 112,103 54,0 95,-47 95,-103 0,-52 -43,-95 -95,-95 -11,0 -21,2 -31,6 26,-39 68,-65 117,-65 96,0 157,92 163,191 1,18 2,37 2,55 0,31 -1,61 -4,92 -29,-5 -58,-8 -89,-8 -188,0 -333,172 -333,374 0,177 131,306 248,441 -19,62 -37,125 -45,190 -6,52 -7,104 -7,156 0,115 55,224 149,292 3,2 7,3 10,3 4,0 7,0 10,-3 71,-84 133,-245 133,-358 0,-143 -86,-255 -180,-364 21,-68 39,-138 56,-207 z m 85,-465 c 68,24 113,95 113,164 0,90 -66,179 -173,190 24,-116 46,-231 60,-354 z M 74,28 c 0,-135 129,-247 264,-247 28,0 55,2 82,6 C 406,-86 383,32 357,151 278,143 233,90 233,32 c 0,-44 25,-91 81,-123 5,-5 7,-10 7,-15 0,-11 -10,-22 -22,-22 -3,0 -6,1 -9,2 -80,43 -117,115 -117,185 0,88 58,174 160,197 -14,58 -29,117 -46,175 C 180,310 74,188 74,28 Z M 408,1045 C 309,997 246,896 246,786 c 0,-74 18,-133 36,-194 80,97 146,198 146,324 0,55 -4,79 -20,129 z"
       transform="matrix(0.004,0,0,-0.004,15.0264,10.8826)"
       inkscape:connector-curvature="0"
       style="fill:currentColor" />
    <a
       id="a78"
       xlink:href="textedit:///Users/ggeoffroy/Documents/geoffroy.re/images/Whatsit.ly:10:6:7"
       style="color:inherit">
      <path
         id="path80"
         d="m 220,138 c 56,0 109,-29 109,-91 0,-72 -56,-121 -103,-149 -36,-21 -76,-36 -117,-36 -56,0 -109,29 -109,91 0,72 56,121 103,149 36,21 76,36 117,36 z"
         transform="matrix(0.004,0,0,-0.004,49.1444,12.3826)"
         inkscape:connector-curvature="0"
         style="fill:currentColor" />
    </a>
    <path
       id="rect82"
       d="m -0.025,-0.87370002 0.05,0 c 0.02216,0 0.04,0.01784 0.04,0.04 l 0,3.10590002 c 0,0.02216 -0.01784,0.04 -0.04,0.04 l -0.05,0 c -0.02216,0 -0.04,-0.01784 -0.04,-0.04 l 0,-3.10590002 c 0,-0.02216 0.01784,-0.04 0.04,-0.04 z"
       style="fill:currentColor"
       transform="translate(50.3956,9.8826)"
       inkscape:connector-curvature="0" />
    <a
       id="a84"
       xlink:href="textedit:///Users/ggeoffroy/Documents/geoffroy.re/images/Whatsit.ly:4:2:3"
       style="color:inherit">
      <path
         id="path86"
         d="m 27,41 -1,-66 0,-11 c 0,-22 1,-44 4,-66 45,38 93,80 93,139 0,33 -14,67 -43,67 C 49,104 28,74 27,41 Z m -42,-179 -12,595 c 8,5 18,8 27,8 9,0 19,-3 27,-8 L 20,112 c 25,21 58,34 91,34 52,0 89,-48 89,-102 0,-80 -86,-117 -147,-169 -15,-13 -24,-38 -45,-38 -13,0 -23,11 -23,25 z"
         transform="matrix(0.004,0,0,-0.004,18.6464,9.8826)"
         inkscape:connector-curvature="0"
         style="fill:currentColor" />
    </a>
    <a
       id="a88"
       xlink:href="textedit:///Users/ggeoffroy/Documents/geoffroy.re/images/Whatsit.ly:10:8:9"
       style="color:inherit">
      <path
         id="path90"
         d="m 220,138 c 56,0 109,-29 109,-91 0,-72 -56,-121 -103,-149 -36,-21 -76,-36 -117,-36 -56,0 -109,29 -109,91 0,72 56,121 103,149 36,21 76,36 117,36 z"
         transform="matrix(0.004,0,0,-0.004,53.3577,11.3826)"
         inkscape:connector-curvature="0"
         style="fill:currentColor" />
    </a>
    <a
       id="a92"
       xlink:href="textedit:///Users/ggeoffroy/Documents/geoffroy.re/images/Whatsit.ly:10:31:32"
       style="color:inherit">
      <path
         id="path94"
         d="m 220,138 c 56,0 109,-29 109,-91 0,-72 -56,-121 -103,-149 -36,-21 -76,-36 -117,-36 -56,0 -109,29 -109,91 0,72 56,121 103,149 36,21 76,36 117,36 z"
         transform="matrix(0.004,0,0,-0.004,71.076,10.3826)"
         inkscape:connector-curvature="0"
         style="fill:currentColor" />
    </a>
    <a
       id="a96"
       xlink:href="textedit:///Users/ggeoffroy/Documents/geoffroy.re/images/Whatsit.ly:10:36:37"
       style="color:inherit">
      <path
         id="path98"
         d="M -50,0 C -50,28 -28,50 0,50 28,50 50,28 50,0 50,-28 28,-50 0,-50 -28,-50 -50,-28 -50,0 Z"
         transform="matrix(0.004,0,0,-0.004,71.734,13.3326)"
         inkscape:connector-curvature="0"
         style="fill:currentColor" />
    </a>
    <path
       id="rect100"
       d="m -0.025,-2.8099999 0.05,0 c 0.02216,0 0.04,0.01784 0.04,0.04 l 0,5.0422 c 0,0.02216 -0.01784,0.04 -0.04,0.04 l -0.05,0 c -0.02216,0 -0.04,-0.01784 -0.04,-0.04 l 0,-5.0422 c 0,-0.02216 0.01784,-0.04 0.04,-0.04 z"
       style="fill:currentColor"
       transform="translate(72.3271,9.8826)"
       inkscape:connector-curvature="0" />
    <path
       id="polygon102"
       d="m 11.9799,-0.39 0,0.4 L 0.04,0.2 l 0,-0.4 z"
       style="fill:currentColor;stroke:currentColor;stroke-width:0.08;stroke-linecap:round;stroke-linejoin:round"
       transform="translate(98.7039,9.0726)"
       inkscape:connector-curvature="0" />
    <path
       id="polygon104"
       d="m 11.9799,-0.39 0,0.4 L 0.04,0.2 l 0,-0.4 z"
       style="fill:currentColor;stroke:currentColor;stroke-width:0.08;stroke-linecap:round;stroke-linejoin:round"
       transform="translate(98.7039,9.8826)"
       inkscape:connector-curvature="0" />
    <path
       id="polygon106"
       d="m 6.7005,-0.01 0,0.4 L 0.04,0.2 l 0,-0.4 z"
       style="fill:currentColor;stroke:currentColor;stroke-width:0.08;stroke-linecap:round;stroke-linejoin:round"
       transform="translate(76.2254,7.6926)"
       inkscape:connector-curvature="0" />
    <a
       id="a108"
       xlink:href="textedit:///Users/ggeoffroy/Documents/geoffroy.re/images/Whatsit.ly:10:56:57"
       style="color:inherit">
      <path
         id="path110"
         d="m 1.651178,-0.225 c 0.9326322,-0.8440247 4.4847315,-0.8440247 5.4173637,0 -0.9326322,-0.72402465 -4.4847315,-0.72402465 -5.4173637,0 z"
         transform="translate(81.6497,9.8826)"
         inkscape:connector-curvature="0"
         style="fill:currentColor;stroke:currentColor;stroke-width:0.08;stroke-linecap:round;stroke-linejoin:round" />
    </a>
    <a
       id="a112"
       xlink:href="textedit:///Users/ggeoffroy/Documents/geoffroy.re/images/Whatsit.ly:10:53:54"
       style="color:inherit">
      <path
         id="path114"
         d="M 1.651178,2.5 C 2.5197163,3.3168331 5.5419144,3.3168331 6.4104527,2.5 5.5419144,3.1968331 2.5197163,3.1968331 1.651178,2.5 Z"
         transform="translate(81.6497,9.8826)"
         inkscape:connector-curvature="0"
         style="fill:currentColor;stroke:currentColor;stroke-width:0.08;stroke-linecap:round;stroke-linejoin:round" />
    </a>
    <a
       id="a116"
       xlink:href="textedit:///Users/ggeoffroy/Documents/geoffroy.re/images/Whatsit.ly:10:50:51"
       style="color:inherit">
      <path
         id="path118"
         d="M 0.858089,4 C 1.8589312,4.8698889 6.0676994,4.8698889 7.0685417,4 6.0676994,4.7498889 1.8589312,4.7498889 0.858089,4 Z"
         transform="translate(81.6497,9.8826)"
         inkscape:connector-curvature="0"
         style="fill:currentColor;stroke:currentColor;stroke-width:0.08;stroke-linecap:round;stroke-linejoin:round" />
    </a>
    <path
       id="polygon120"
       d="m 8.2489,-0.2 0,0.4 -8.2089,0 0,-0.4 z"
       style="fill:currentColor;stroke:currentColor;stroke-width:0.08;stroke-linecap:round;stroke-linejoin:round"
       transform="translate(64.1032,7.0726)"
       inkscape:connector-curvature="0" />
    <path
       id="polygon122"
       d="m 1.125,-0.2 0,0.4 -1.085,0 0,-0.4 z"
       style="fill:currentColor;stroke:currentColor;stroke-width:0.08;stroke-linecap:round;stroke-linejoin:round"
       transform="translate(71.2271,7.8826)"
       inkscape:connector-curvature="0" />
    <a
       id="a124"
       xlink:href="textedit:///Users/ggeoffroy/Documents/geoffroy.re/images/Whatsit.ly:10:32:33"
       style="color:inherit">
      <path
         id="path126"
         d="m 1.651178,-0.225 c 0.6176492,-0.67544347 2.1525772,-0.67544347 2.7702263,0 -0.6176491,-0.55544347 -2.1525771,-0.55544347 -2.7702263,0 z"
         transform="translate(71.076,9.8826)"
         inkscape:connector-curvature="0"
         style="fill:currentColor;stroke:currentColor;stroke-width:0.08;stroke-linecap:round;stroke-linejoin:round" />
    </a>
    <a
       id="a128"
       xlink:href="textedit:///Users/ggeoffroy/Documents/geoffroy.re/images/Whatsit.ly:10:29:30"
       style="color:inherit">
      <path
         id="path130"
         d="m 1.651178,2.225 c 0.5082056,0.5916736 1.6039318,0.5916736 2.1121373,0 -0.5082055,0.4716736 -1.6039317,0.4716736 -2.1121373,0 z"
         transform="translate(71.076,9.8826)"
         inkscape:connector-curvature="0"
         style="fill:currentColor;stroke:currentColor;stroke-width:0.08;stroke-linecap:round;stroke-linejoin:round" />
    </a>
    <a
       id="a132"
       xlink:href="textedit:///Users/ggeoffroy/Documents/geoffroy.re/images/Whatsit.ly:10:26:27"
       style="color:inherit">
      <path
         id="path134"
         d="M 1.516178,3 C 2.0482251,3.6112249 3.2312683,3.6112249 3.7633153,3 3.2312683,3.4912249 2.0482251,3.4912249 1.516178,3 Z"
         transform="translate(71.076,9.8826)"
         inkscape:connector-curvature="0"
         style="fill:currentColor;stroke:currentColor;stroke-width:0.08;stroke-linecap:round;stroke-linejoin:round" />
    </a>
    <path
       id="polygon136"
       d="m 11.9799,-0.39 0,0.4 L 0.04,0.2 l 0,-0.4 z"
       style="fill:currentColor;stroke:currentColor;stroke-width:0.08;stroke-linecap:round;stroke-linejoin:round"
       transform="translate(46.3673,9.0726)"
       inkscape:connector-curvature="0" />
    <path
       id="polygon138"
       d="m 11.9799,-0.39 0,0.4 L 0.04,0.2 l 0,-0.4 z"
       style="fill:currentColor;stroke:currentColor;stroke-width:0.08;stroke-linecap:round;stroke-linejoin:round"
       transform="translate(46.3673,9.8826)"
       inkscape:connector-curvature="0" />
    <path
       id="path140"
       d="M 0,0 C 0,31 25,56 56,56 87,56 112,31 112,0 112,-31 87,-56 56,-56 25,-56 0,-31 0,0 Z"
       transform="matrix(0.004,0,0,-0.004,64.6832,11.3826)"
       inkscape:connector-curvature="0"
       style="fill:currentColor" />
    <path
       id="path142"
       d="M 0,0 C 0,31 25,56 56,56 87,56 112,31 112,0 112,-31 87,-56 56,-56 25,-56 0,-31 0,0 Z"
       transform="matrix(0.004,0,0,-0.004,64.6832,10.3826)"
       inkscape:connector-curvature="0"
       style="fill:currentColor" />
    <path
       id="rect146"
       d="m 1.0756,-2.6726999 0.0772,0 c 0.010692,0 0.0193,0.00861 0.0193,0.0193 l 0,2.47270006 c 0,0.0106922 -0.00861,0.0193 -0.0193,0.0193 l -0.0772,0 c -0.010692,0 -0.0193,-0.008608 -0.0193,-0.0193 l 0,-2.47270006 c 0,-0.010692 0.00861,-0.0193 0.0193,-0.0193 z"
       style="color:inherit;fill:currentColor"
       transform="translate(20.5964,6.5373)"
       inkscape:connector-curvature="0" />
    <path
       id="path148"
       d="m 217,139 c 57,0 112,-31 112,-94 0,-72 -55,-121 -102,-149 -35,-21 -74,-35 -115,-35 -57,0 -112,31 -112,94 0,72 55,121 102,149 35,21 74,35 115,35 z"
       transform="matrix(0.0036,0,0,-0.0036,20.5964,6.5373)"
       style="color:inherit;fill:currentColor"
       inkscape:connector-curvature="0" />
    <path
       id="path4760"
       style="color:inherit;font-size:2.20009995px;font-family:'Century Schoolbook L';text-anchor:start;fill:currentColor"
       d="m 0.07412446,-1.0753418 1.18599134,0 0,0.14395183 -1.18599134,0 0,-0.14395183 z m 0,0.51027707 1.18599134,0 0,0.14287758 -1.18599134,0 0,-0.14287758 z"
       transform="translate(21.768499,7.0309)"
       inkscape:connector-curvature="0" />
    <path
       id="path4762"
       style="color:inherit;font-size:2.20009995px;font-family:'Century Schoolbook L';text-anchor:start;fill:currentColor"
       d="m 2.6888917,-1.4900091 0,1.34068591 q 0,0.0300795 0.021485,0.0461935 0.031154,0.02255961 0.076273,0.02255961 l 0.2084079,0 0,0.08057007 -0.7723984,0 0,-0.08057007 0.1783284,0 q 0.055862,0 0.082719,-0.02578242 0.026857,-0.0268567 0.026857,-0.0709017 l 0,-1.0130343 q 0,-0.031154 -0.024708,-0.052639 -0.024708,-0.021485 -0.063382,-0.021485 l -0.2384874,0 0,-0.074125 q 0.1675857,-0.021485 0.2717897,-0.056936 0.1042039,-0.036525 0.1836997,-0.094536 l 0.049416,0 z"
       transform="translate(21.768499,7.0309)"
       inkscape:connector-curvature="0" />
    <path
       id="path4764"
       style="color:inherit;font-size:2.20009995px;font-family:'Century Schoolbook L';text-anchor:start;fill:currentColor"
       d="m 3.9135566,-1.4900091 0,1.34068591 q 0,0.0300795 0.021485,0.0461935 0.031154,0.02255961 0.076273,0.02255961 l 0.2084079,0 0,0.08057007 -0.7723984,0 0,-0.08057007 0.1783284,0 q 0.055862,0 0.082719,-0.02578242 0.026857,-0.0268567 0.026857,-0.0709017 l 0,-1.0130343 q 0,-0.031154 -0.024708,-0.052639 -0.024708,-0.021485 -0.063382,-0.021485 l -0.2384874,0 0,-0.074125 q 0.1675857,-0.021485 0.2717897,-0.056936 0.1042039,-0.036525 0.1836997,-0.094536 l 0.049416,0 z"
       transform="translate(21.768499,7.0309)"
       inkscape:connector-curvature="0" />
    <path
       id="path4766"
       style="color:inherit;font-size:2.20009995px;font-family:'Century Schoolbook L';text-anchor:start;fill:currentColor"
       d="m 5.2295345,-1.4900091 0.069827,0 0,1.01625711 0.2470816,0 0,0.0913127 -0.2470816,0 0,0.22881899 q 0,0.0300795 0.023634,0.048342 0.034377,0.02470815 0.079496,0.02470815 l 0.091313,0 0,0.08057007 -0.5962185,0 0,-0.08057007 0.1106495,0 q 0.055862,0 0.081644,-0.02363388 0.026857,-0.0236339 0.026857,-0.0687531 l 0,-0.20948217 -0.6080355,0 0,-0.10312968 0.7208335,-1.00444022 z m -0.112798,0.2911265 -0.5188713,0.72513061 0.5188713,0 0,-0.72513061 z"
       transform="translate(21.768499,7.0309)"
       inkscape:connector-curvature="0" />
    <a
       id="a154"
       xlink:href="textedit:///Users/ggeoffroy/Documents/geoffroy.re/images/Whatsit.ly:10:25:26"
       style="color:inherit">
      <path
         id="path156"
         d="m 220,138 c 56,0 109,-29 109,-91 0,-72 -56,-121 -103,-149 -36,-21 -76,-36 -117,-36 -56,0 -109,29 -109,91 0,72 56,121 103,149 36,21 76,36 117,36 z"
         transform="matrix(0.004,0,0,-0.004,71.076,12.3826)"
         inkscape:connector-curvature="0"
         style="fill:currentColor" />
    </a>
    <a
       id="a158"
       xlink:href="textedit:///Users/ggeoffroy/Documents/geoffroy.re/images/Whatsit.ly:10:28:29"
       style="color:inherit">
      <path
         id="path160"
         d="m 220,138 c 56,0 109,-29 109,-91 0,-72 -56,-121 -103,-149 -36,-21 -76,-36 -117,-36 -56,0 -109,29 -109,91 0,72 56,121 103,149 36,21 76,36 117,36 z"
         transform="matrix(0.004,0,0,-0.004,71.076,11.3826)"
         inkscape:connector-curvature="0"
         style="fill:currentColor" />
    </a>
    <a
       id="a162"
       xlink:href="textedit:///Users/ggeoffroy/Documents/geoffroy.re/images/Whatsit.ly:10:60:61"
       style="color:inherit">
      <path
         id="path164"
         d="m 220,138 c 56,0 109,-29 109,-91 0,-72 -56,-121 -103,-149 -36,-21 -76,-36 -117,-36 -56,0 -109,29 -109,91 0,72 56,121 103,149 36,21 76,36 117,36 z"
         transform="matrix(0.004,0,0,-0.004,88.2602,12.8826)"
         inkscape:connector-curvature="0"
         style="fill:currentColor" />
    </a>
    <a
       id="a166"
       xlink:href="textedit:///Users/ggeoffroy/Documents/geoffroy.re/images/Whatsit.ly:10:62:63"
       style="color:inherit">
      <path
         id="path168"
         d="m 220,138 c 56,0 109,-29 109,-91 0,-72 -56,-121 -103,-149 -36,-21 -76,-36 -117,-36 -56,0 -109,29 -109,91 0,72 56,121 103,149 36,21 76,36 117,36 z"
         transform="matrix(0.004,0,0,-0.004,88.2602,11.8826)"
         inkscape:connector-curvature="0"
         style="fill:currentColor" />
    </a>
    <a
       id="a170"
       xlink:href="textedit:///Users/ggeoffroy/Documents/geoffroy.re/images/Whatsit.ly:10:64:65"
       style="color:inherit">
      <path
         id="path172"
         d="m 220,138 c 56,0 109,-29 109,-91 0,-72 -56,-121 -103,-149 -36,-21 -76,-36 -117,-36 -56,0 -109,29 -109,91 0,72 56,121 103,149 36,21 76,36 117,36 z"
         transform="matrix(0.004,0,0,-0.004,88.2602,10.8826)"
         inkscape:connector-curvature="0"
         style="fill:currentColor" />
    </a>
    <path
       id="rect174"
       d="m -0.025,-2.5 0.05,0 c 0.02216,0 0.04,0.01784 0.04,0.04 l 0,5.2322001 c 0,0.02216 -0.01784,0.04 -0.04,0.04 l -0.05,0 c -0.02216,0 -0.04,-0.01784 -0.04,-0.04 l 0,-5.2322001 c 0,-0.02216 0.01784,-0.04 0.04,-0.04 z"
       style="fill:currentColor"
       transform="translate(89.5114,9.8826)"
       inkscape:connector-curvature="0" />
    <a
       id="a176"
       xlink:href="textedit:///Users/ggeoffroy/Documents/geoffroy.re/images/Whatsit.ly:11:2:3"
       style="color:inherit">
      <path
         id="path178"
         d="m 220,138 c 56,0 109,-29 109,-91 0,-72 -56,-121 -103,-149 -36,-21 -76,-36 -117,-36 -56,0 -109,29 -109,91 0,72 56,121 103,149 36,21 76,36 117,36 z"
         transform="matrix(0.004,0,0,-0.004,97.5178,12.8826)"
         inkscape:connector-curvature="0"
         style="fill:currentColor" />
    </a>
    <path
       id="rect180"
       d="m -0.025,-0.81099999 0.05,0 c 0.02216,0 0.04,0.01784 0.04,0.04 l 0,3.54319999 c 0,0.02216 -0.01784,0.04 -0.04,0.04 l -0.05,0 c -0.02216,0 -0.04,-0.01784 -0.04,-0.04 l 0,-3.54319999 c 0,-0.02216 0.01784,-0.04 0.04,-0.04 z"
       style="fill:currentColor"
       transform="translate(98.7689,9.8826)"
       inkscape:connector-curvature="0" />
    <a
       id="a182"
       xlink:href="textedit:///Users/ggeoffroy/Documents/geoffroy.re/images/Whatsit.ly:10:40:41"
       style="color:inherit">
      <path
         id="path184"
         d="m 220,138 c 56,0 109,-29 109,-91 0,-72 -56,-121 -103,-149 -36,-21 -76,-36 -117,-36 -56,0 -109,29 -109,91 0,72 56,121 103,149 36,21 76,36 117,36 z"
         transform="matrix(0.004,0,0,-0.004,75.0393,12.3826)"
         inkscape:connector-curvature="0"
         style="fill:currentColor" />
    </a>
    <a
       id="a186"
       xlink:href="textedit:///Users/ggeoffroy/Documents/geoffroy.re/images/Whatsit.ly:10:42:43"
       style="color:inherit">
      <path
         id="path188"
         d="m 220,138 c 56,0 109,-29 109,-91 0,-72 -56,-121 -103,-149 -36,-21 -76,-36 -117,-36 -56,0 -109,29 -109,91 0,72 56,121 103,149 36,21 76,36 117,36 z"
         transform="matrix(0.004,0,0,-0.004,75.0393,11.3826)"
         inkscape:connector-curvature="0"
         style="fill:currentColor" />
    </a>
    <a
       id="a190"
       xlink:href="textedit:///Users/ggeoffroy/Documents/geoffroy.re/images/Whatsit.ly:10:44:45"
       style="color:inherit">
      <path
         id="path192"
         d="m 220,138 c 56,0 109,-29 109,-91 0,-72 -56,-121 -103,-149 -36,-21 -76,-36 -117,-36 -56,0 -109,29 -109,91 0,72 56,121 103,149 36,21 76,36 117,36 z"
         transform="matrix(0.004,0,0,-0.004,75.0393,10.3826)"
         inkscape:connector-curvature="0"
         style="fill:currentColor" />
    </a>
    <path
       id="rect194"
       d="m -0.025,-2.1882 0.05,0 c 0.02216,0 0.04,0.01784 0.04,0.04 l 0,4.4204001 c 0,0.02216 -0.01784,0.04 -0.04,0.04 l -0.05,0 c -0.02216,0 -0.04,-0.01784 -0.04,-0.04 l 0,-4.4204001 c 0,-0.02216 0.01784,-0.04 0.04,-0.04 z"
       style="fill:currentColor"
       transform="translate(76.2904,9.8826)"
       inkscape:connector-curvature="0" />
    <a
       id="a196"
       xlink:href="textedit:///Users/ggeoffroy/Documents/geoffroy.re/images/Whatsit.ly:10:49:50"
       style="color:inherit">
      <path
         id="path198"
         d="m 220,138 c 56,0 109,-29 109,-91 0,-72 -56,-121 -103,-149 -36,-21 -76,-36 -117,-36 -56,0 -109,29 -109,91 0,72 56,121 103,149 36,21 76,36 117,36 z"
         transform="matrix(0.004,0,0,-0.004,81.6497,12.8826)"
         inkscape:connector-curvature="0"
         style="fill:currentColor" />
    </a>
    <a
       id="a200"
       xlink:href="textedit:///Users/ggeoffroy/Documents/geoffroy.re/images/Whatsit.ly:10:52:53"
       style="color:inherit">
      <path
         id="path202"
         d="m 220,138 c 56,0 109,-29 109,-91 0,-72 -56,-121 -103,-149 -36,-21 -76,-36 -117,-36 -56,0 -109,29 -109,91 0,72 56,121 103,149 36,21 76,36 117,36 z"
         transform="matrix(0.004,0,0,-0.004,81.6497,11.8826)"
         inkscape:connector-curvature="0"
         style="fill:currentColor" />
    </a>
    <a
       id="a204"
       xlink:href="textedit:///Users/ggeoffroy/Documents/geoffroy.re/images/Whatsit.ly:10:55:56"
       style="color:inherit">
      <path
         id="path206"
         d="m 220,138 c 56,0 109,-29 109,-91 0,-72 -56,-121 -103,-149 -36,-21 -76,-36 -117,-36 -56,0 -109,29 -109,91 0,72 56,121 103,149 36,21 76,36 117,36 z"
         transform="matrix(0.004,0,0,-0.004,81.6497,10.8826)"
         inkscape:connector-curvature="0"
         style="fill:currentColor" />
    </a>
    <path
       id="rect208"
       d="m -0.025,-2.0018001 0.05,0 c 0.02216,0 0.04,0.01784 0.04,0.04 l 0,4.7340002 c 0,0.02216 -0.01784,0.04 -0.04,0.04 l -0.05,0 c -0.02216,0 -0.04,-0.01784 -0.04,-0.04 l 0,-4.7340002 c 0,-0.02216 0.01784,-0.04 0.04,-0.04 z"
       style="fill:currentColor"
       transform="translate(82.9009,9.8826)"
       inkscape:connector-curvature="0" />
    <a
       id="a210"
       xlink:href="textedit:///Users/ggeoffroy/Documents/geoffroy.re/images/Whatsit.ly:11:10:11"
       style="color:inherit">
      <path
         id="path212"
         d="m 220,138 c 56,0 109,-29 109,-91 0,-72 -56,-121 -103,-149 -36,-21 -76,-36 -117,-36 -56,0 -109,29 -109,91 0,72 56,121 103,149 36,21 76,36 117,36 z"
         transform="matrix(0.004,0,0,-0.004,109.4077,12.3826)"
         inkscape:connector-curvature="0"
         style="fill:currentColor" />
    </a>
    <path
       id="rect214"
       d="m -0.025,-0.99900001 0.05,0 c 0.02216,0 0.04,0.01784 0.04,0.04 l 0,3.23119991 c 0,0.02216 -0.01784,0.04 -0.04,0.04 l -0.05,0 c -0.02216,0 -0.04,-0.01784 -0.04,-0.04 l 0,-3.23119991 c 0,-0.02216 0.01784,-0.04 0.04,-0.04 z"
       style="fill:currentColor"
       transform="translate(110.6589,9.8826)"
       inkscape:connector-curvature="0" />
    <a
       id="a216"
       xlink:href="textedit:///Users/ggeoffroy/Documents/geoffroy.re/images/Whatsit.ly:11:6:7"
       style="color:inherit">
      <path
         id="path218"
         d="m 220,138 c 56,0 109,-29 109,-91 0,-72 -56,-121 -103,-149 -36,-21 -76,-36 -117,-36 -56,0 -109,29 -109,91 0,72 56,121 103,149 36,21 76,36 117,36 z"
         transform="matrix(0.004,0,0,-0.004,101.4811,12.3826)"
         inkscape:connector-curvature="0"
         style="fill:currentColor" />
    </a>
    <path
       id="rect220"
       d="m -0.025,-0.87370002 0.05,0 c 0.02216,0 0.04,0.01784 0.04,0.04 l 0,3.10590002 c 0,0.02216 -0.01784,0.04 -0.04,0.04 l -0.05,0 c -0.02216,0 -0.04,-0.01784 -0.04,-0.04 l 0,-3.10590002 c 0,-0.02216 0.01784,-0.04 0.04,-0.04 z"
       style="fill:currentColor"
       transform="translate(102.7323,9.8826)"
       inkscape:connector-curvature="0" />
    <a
       id="a222"
       xlink:href="textedit:///Users/ggeoffroy/Documents/geoffroy.re/images/Whatsit.ly:11:8:9"
       style="color:inherit">
      <path
         id="path224"
         d="m 220,138 c 56,0 109,-29 109,-91 0,-72 -56,-121 -103,-149 -36,-21 -76,-36 -117,-36 -56,0 -109,29 -109,91 0,72 56,121 103,149 36,21 76,36 117,36 z"
         transform="matrix(0.004,0,0,-0.004,105.6944,11.3826)"
         inkscape:connector-curvature="0"
         style="fill:currentColor" />
    </a>
    <path
       id="rect226"
       d="m -0.025,-0.94029999 0.05,0 c 0.02216,0 0.04,0.01784 0.04,0.04 l 0,2.17250009 c 0,0.02216 -0.01784,0.04 -0.04,0.04 l -0.05,0 c -0.02216,0 -0.04,-0.01784 -0.04,-0.04 l 0,-2.17250009 c 0,-0.02216 0.01784,-0.04 0.04,-0.04 z"
       style="fill:currentColor"
       transform="translate(106.9456,9.8826)"
       inkscape:connector-curvature="0" />
    <path
       id="rect228"
       d="m 7.4909998,-0.1 1.7743,0 c 0.0554,0 0.1,0.0446 0.1,0.1 0,0.0554 -0.0446,0.1 -0.1,0.1 l -1.7743,0 c -0.0554,0 -0.1,-0.0446 -0.1,-0.1 0,-0.0554 0.0446,-0.1 0.1,-0.1 z"
       style="fill:currentColor"
       transform="translate(5.6906,24.8826)"
       inkscape:connector-curvature="0" />
    <path
       id="rect230"
       d="m 13.3947,-0.1 1.7743,0 c 0.0554,0 0.1,0.0446 0.1,0.1 0,0.0554 -0.0446,0.1 -0.1,0.1 l -1.7743,0 c -0.0554,0 -0.1,-0.0446 -0.1,-0.1 0,-0.0554 0.0446,-0.1 0.1,-0.1 z"
       style="fill:currentColor"
       transform="translate(5.6906,24.8826)"
       inkscape:connector-curvature="0" />
    <path
       id="rect232"
       d="m 16.485599,-0.1 1.7743,0 c 0.0554,0 0.1,0.0446 0.1,0.1 0,0.0554 -0.0446,0.1 -0.1,0.1 l -1.7743,0 c -0.0554,0 -0.1,-0.0446 -0.1,-0.1 0,-0.0554 0.0446,-0.1 0.1,-0.1 z"
       style="fill:currentColor"
       transform="translate(5.6906,24.8826)"
       inkscape:connector-curvature="0" />
    <path
       id="rect234"
       d="m 21.3512,-0.1 1.7743,0 c 0.0554,0 0.1,0.0446 0.1,0.1 0,0.0554 -0.0446,0.1 -0.1,0.1 l -1.7743,0 c -0.0554,0 -0.1,-0.0446 -0.1,-0.1 0,-0.0554 0.0446,-0.1 0.1,-0.1 z"
       style="fill:currentColor"
       transform="translate(5.6906,24.8826)"
       inkscape:connector-curvature="0" />
    <path
       id="rect236"
       d="m 21.3512,-0.1 1.7743,0 c 0.0554,0 0.1,0.0446 0.1,0.1 0,0.0554 -0.0446,0.1 -0.1,0.1 l -1.7743,0 c -0.0554,0 -0.1,-0.0446 -0.1,-0.1 0,-0.0554 0.0446,-0.1 0.1,-0.1 z"
       style="fill:currentColor"
       transform="translate(5.6906,25.8826)"
       inkscape:connector-curvature="0" />
    <path
       id="rect238"
       d="m 26.2168,-0.1 1.7743,0 c 0.0554,0 0.1,0.0446 0.1,0.1 0,0.0554 -0.0446,0.1 -0.1,0.1 l -1.7743,0 c -0.0554,0 -0.1,-0.0446 -0.1,-0.1 0,-0.0554 0.0446,-0.1 0.1,-0.1 z"
       style="fill:currentColor"
       transform="translate(5.6906,24.8826)"
       inkscape:connector-curvature="0" />
    <path
       id="rect240"
       d="m 26.2168,-0.1 1.7743,0 c 0.0554,0 0.1,0.0446 0.1,0.1 0,0.0554 -0.0446,0.1 -0.1,0.1 l -1.7743,0 c -0.0554,0 -0.1,-0.0446 -0.1,-0.1 0,-0.0554 0.0446,-0.1 0.1,-0.1 z"
       style="fill:currentColor"
       transform="translate(5.6906,25.8826)"
       inkscape:connector-curvature="0" />
    <path
       id="rect242"
       d="m 37.2642,-0.1 1.7743,0 c 0.0554,0 0.1,0.0446 0.1,0.1 0,0.0554 -0.0446,0.1 -0.1,0.1 l -1.7743,0 c -0.0554,0 -0.1,-0.0446 -0.1,-0.1 0,-0.0554 0.0446,-0.1 0.1,-0.1 z"
       style="fill:currentColor"
       transform="translate(5.6906,24.8826)"
       inkscape:connector-curvature="0" />
    <path
       id="rect244"
       d="m 51.183302,-0.1 1.7743,0 c 0.0554,0 0.1,0.0446 0.1,0.1 0,0.0554 -0.0446,0.1 -0.1,0.1 l -1.7743,0 c -0.0554,0 -0.1,-0.0446 -0.1,-0.1 0,-0.0554 0.0446,-0.1 0.1,-0.1 z"
       style="fill:currentColor"
       transform="translate(5.6906,24.8826)"
       inkscape:connector-curvature="0" />
    <path
       id="rect246"
       d="m 62.439298,-0.1 1.7743,0 c 0.0554,0 0.1,0.0446 0.1,0.1 0,0.0554 -0.0446,0.1 -0.1,0.1 l -1.7743,0 c -0.0554,0 -0.1,-0.0446 -0.1,-0.1 0,-0.0554 0.0446,-0.1 0.1,-0.1 z"
       style="fill:currentColor"
       transform="translate(5.6906,24.8826)"
       inkscape:connector-curvature="0" />
    <path
       id="rect248"
       d="m 67.304903,-0.1 1.7743,0 c 0.0554,0 0.1,0.0446 0.1,0.1 0,0.0554 -0.0446,0.1 -0.1,0.1 l -1.7743,0 c -0.0554,0 -0.1,-0.0446 -0.1,-0.1 0,-0.0554 0.0446,-0.1 0.1,-0.1 z"
       style="fill:currentColor"
       transform="translate(5.6906,24.8826)"
       inkscape:connector-curvature="0" />
    <path
       id="rect250"
       d="m 73.486703,-0.1 1.774301,0 c 0.0554,0 0.1,0.0446 0.1,0.1 0,0.0554 -0.0446,0.1 -0.1,0.1 l -1.774301,0 c -0.0554,0 -0.1,-0.0446 -0.1,-0.1 0,-0.0554 0.0446,-0.1 0.1,-0.1 z"
       style="fill:currentColor"
       transform="translate(5.6906,24.8826)"
       inkscape:connector-curvature="0" />
    <path
       id="rect252"
       d="m 80.127,-0.1 1.7743,0 c 0.0554,0 0.1,0.0446 0.1,0.1 0,0.0554 -0.0446,0.1 -0.1,0.1 l -1.7743,0 c -0.0554,0 -0.1,-0.0446 -0.1,-0.1 0,-0.0554 0.0446,-0.1 0.1,-0.1 z"
       style="fill:currentColor"
       transform="translate(5.6906,24.8826)"
       inkscape:connector-curvature="0" />
    <path
       id="rect254"
       d="m 86.298097,-0.1 1.7743,0 c 0.0554,0 0.1,0.0446 0.1,0.1 0,0.0554 -0.0446,0.1 -0.1,0.1 l -1.7743,0 c -0.0554,0 -0.1,-0.0446 -0.1,-0.1 0,-0.0554 0.0446,-0.1 0.1,-0.1 z"
       style="fill:currentColor"
       transform="translate(5.6906,24.8826)"
       inkscape:connector-curvature="0" />
    <path
       id="rect256"
       d="m 86.298097,-0.1 1.7743,0 c 0.0554,0 0.1,0.0446 0.1,0.1 0,0.0554 -0.0446,0.1 -0.1,0.1 l -1.7743,0 c -0.0554,0 -0.1,-0.0446 -0.1,-0.1 0,-0.0554 0.0446,-0.1 0.1,-0.1 z"
       style="fill:currentColor"
       transform="translate(5.6906,25.8826)"
       inkscape:connector-curvature="0" />
    <path
       id="rect258"
       d="m 86.298097,-0.1 1.7743,0 c 0.0554,0 0.1,0.0446 0.1,0.1 0,0.0554 -0.0446,0.1 -0.1,0.1 l -1.7743,0 c -0.0554,0 -0.1,-0.0446 -0.1,-0.1 0,-0.0554 0.0446,-0.1 0.1,-0.1 z"
       style="fill:currentColor"
       transform="translate(5.6906,24.8826)"
       inkscape:connector-curvature="0" />
    <path
       id="rect260"
       d="m 92.92,-0.1 1.885,0 c 0.0554,0 0.1,0.0446 0.1,0.1 0,0.0554 -0.0446,0.1 -0.1,0.1 l -1.885,0 c -0.0554,0 -0.1,-0.0446 -0.1,-0.1 0,-0.0554 0.0446,-0.1 0.1,-0.1 z"
       style="fill:currentColor"
       transform="translate(5.6906,24.8826)"
       inkscape:connector-curvature="0" />
    <path
       id="rect262"
       d="m 92.92,-0.1 1.885,0 c 0.0554,0 0.1,0.0446 0.1,0.1 0,0.0554 -0.0446,0.1 -0.1,0.1 l -1.885,0 c -0.0554,0 -0.1,-0.0446 -0.1,-0.1 0,-0.0554 0.0446,-0.1 0.1,-0.1 z"
       style="fill:currentColor"
       transform="translate(5.6906,25.8826)"
       inkscape:connector-curvature="0" />
    <path
       id="line264"
       d="M 0.05,0 108.0705,0"
       style="stroke:currentColor;stroke-width:0.1;stroke-linecap:round;stroke-linejoin:round"
       transform="translate(5.6906,23.8826)"
       inkscape:connector-curvature="0" />
    <path
       id="line266"
       d="M 0.05,0 108.0705,0"
       style="stroke:currentColor;stroke-width:0.1;stroke-linecap:round;stroke-linejoin:round"
       transform="translate(5.6906,22.8826)"
       inkscape:connector-curvature="0" />
    <path
       id="line268"
       d="M 0.05,0 108.0705,0"
       style="stroke:currentColor;stroke-width:0.1;stroke-linecap:round;stroke-linejoin:round"
       transform="translate(5.6906,21.8826)"
       inkscape:connector-curvature="0" />
    <path
       id="line270"
       d="M 0.05,0 108.0705,0"
       style="stroke:currentColor;stroke-width:0.1;stroke-linecap:round;stroke-linejoin:round"
       transform="translate(5.6906,20.8826)"
       inkscape:connector-curvature="0" />
    <path
       id="line272"
       d="M 0.05,0 108.0705,0"
       style="stroke:currentColor;stroke-width:0.1;stroke-linecap:round;stroke-linejoin:round"
       transform="translate(5.6906,19.8826)"
       inkscape:connector-curvature="0" />
    <path
       id="rect274"
       d="m 0,-2 0.19,0 0,4 L 0,2 Z"
       style="fill:currentColor"
       transform="translate(55.7974,21.8826)"
       inkscape:connector-curvature="0" />
    <path
       id="rect276"
       d="m 0,-2 0.19,0 0,4 L 0,2 Z"
       style="fill:currentColor"
       transform="translate(113.621,21.8826)"
       inkscape:connector-curvature="0" />
    <path
       id="rect278"
       d="m 0,-2 0.19,0 0,4 L 0,2 Z"
       style="fill:currentColor"
       transform="translate(90.9122,21.8826)"
       inkscape:connector-curvature="0" />
    <path
       id="rect280"
       d="m -0.025,-0.94129997 0.05,0 c 0.02216,0 0.04,0.01784 0.04,0.04 l 0,2.17349997 c 0,0.02216 -0.01784,0.04 -0.04,0.04 l -0.05,0 c -0.02216,0 -0.04,-0.01784 -0.04,-0.04 l 0,-2.17349997 c 0,-0.02216 0.01784,-0.04 0.04,-0.04 z"
       style="fill:currentColor"
       transform="translate(50.8668,21.8826)"
       inkscape:connector-curvature="0" />
    <a
       id="a282"
       xlink:href="textedit:///Users/ggeoffroy/Documents/geoffroy.re/images/Whatsit.ly:12:8:9"
       style="color:inherit">
      <path
         id="path284"
         d="m 220,138 c 56,0 109,-29 109,-91 0,-72 -56,-121 -103,-149 -36,-21 -76,-36 -117,-36 -56,0 -109,29 -109,91 0,72 56,121 103,149 36,21 76,36 117,36 z"
         transform="matrix(0.004,0,0,-0.004,49.6156,23.3826)"
         inkscape:connector-curvature="0"
         style="fill:currentColor" />
    </a>
    <path
       id="rect286"
       d="m -0.025,-0.87379998 0.05,0 c 0.02216,0 0.04,0.01784 0.04,0.04 l 0,3.10600008 c 0,0.02216 -0.01784,0.04 -0.04,0.04 l -0.05,0 c -0.02216,0 -0.04,-0.01784 -0.04,-0.04 l 0,-3.10600008 c 0,-0.02216 0.01784,-0.04 0.04,-0.04 z"
       style="fill:currentColor"
       transform="translate(47.5259,21.8826)"
       inkscape:connector-curvature="0" />
    <a
       id="a288"
       xlink:href="textedit:///Users/ggeoffroy/Documents/geoffroy.re/images/Whatsit.ly:12:6:7"
       style="color:inherit">
      <path
         id="path290"
         d="m 220,138 c 56,0 109,-29 109,-91 0,-72 -56,-121 -103,-149 -36,-21 -76,-36 -117,-36 -56,0 -109,29 -109,91 0,72 56,121 103,149 36,21 76,36 117,36 z"
         transform="matrix(0.004,0,0,-0.004,46.2747,24.3826)"
         inkscape:connector-curvature="0"
         style="fill:currentColor" />
    </a>
    <a
       id="a292"
       xlink:href="textedit:///Users/ggeoffroy/Documents/geoffroy.re/images/Whatsit.ly:12:10:11"
       style="color:inherit">
      <path
         id="path294"
         d="m 220,138 c 56,0 109,-29 109,-91 0,-72 -56,-121 -103,-149 -36,-21 -76,-36 -117,-36 -56,0 -109,29 -109,91 0,72 56,121 103,149 36,21 76,36 117,36 z"
         transform="matrix(0.004,0,0,-0.004,52.4565,24.3826)"
         inkscape:connector-curvature="0"
         style="fill:currentColor" />
    </a>
    <path
       id="rect296"
       d="m -0.025,-0.99870002 0.05,0 c 0.02216,0 0.04,0.01784 0.04,0.04 l 0,3.23090002 c 0,0.02216 -0.01784,0.04 -0.04,0.04 l -0.05,0 c -0.02216,0 -0.04,-0.01784 -0.04,-0.04 l 0,-3.23090002 c 0,-0.02216 0.01784,-0.04 0.04,-0.04 z"
       style="fill:currentColor"
       transform="translate(53.7077,21.8826)"
       inkscape:connector-curvature="0" />
    <a
       id="a298"
       xlink:href="textedit:///Users/ggeoffroy/Documents/geoffroy.re/images/Whatsit.ly:12:13:14"
       style="color:inherit">
      <path
         id="path300"
         d="m 220,138 c 56,0 109,-29 109,-91 0,-72 -56,-121 -103,-149 -36,-21 -76,-36 -117,-36 -56,0 -109,29 -109,91 0,72 56,121 103,149 36,21 76,36 117,36 z"
         transform="matrix(0.004,0,0,-0.004,57.1029,25.3826)"
         inkscape:connector-curvature="0"
         style="fill:currentColor" />
    </a>
    <a
       id="a302"
       xlink:href="textedit:///Users/ggeoffroy/Documents/geoffroy.re/images/Whatsit.ly:12:17:18"
       style="color:inherit">
      <path
         id="path304"
         d="m 220,138 c 56,0 109,-29 109,-91 0,-72 -56,-121 -103,-149 -36,-21 -76,-36 -117,-36 -56,0 -109,29 -109,91 0,72 56,121 103,149 36,21 76,36 117,36 z"
         transform="matrix(0.004,0,0,-0.004,57.1029,24.3826)"
         inkscape:connector-curvature="0"
         style="fill:currentColor" />
    </a>
    <a
       id="a306"
       xlink:href="textedit:///Users/ggeoffroy/Documents/geoffroy.re/images/Whatsit.ly:12:19:20"
       style="color:inherit">
      <path
         id="path308"
         d="m 220,138 c 56,0 109,-29 109,-91 0,-72 -56,-121 -103,-149 -36,-21 -76,-36 -117,-36 -56,0 -109,29 -109,91 0,72 56,121 103,149 36,21 76,36 117,36 z"
         transform="matrix(0.004,0,0,-0.004,57.1029,23.3826)"
         inkscape:connector-curvature="0"
         style="fill:currentColor" />
    </a>
    <a
       id="a310"
       xlink:href="textedit:///Users/ggeoffroy/Documents/geoffroy.re/images/Whatsit.ly:11:60:61"
       style="color:inherit">
      <path
         id="path312"
         d="m 220,138 c 56,0 109,-29 109,-91 0,-72 -56,-121 -103,-149 -36,-21 -76,-36 -117,-36 -56,0 -109,29 -109,91 0,72 56,121 103,149 36,21 76,36 117,36 z"
         transform="matrix(0.004,0,0,-0.004,32.1364,25.8826)"
         inkscape:connector-curvature="0"
         style="fill:currentColor" />
    </a>
    <a
       id="a314"
       xlink:href="textedit:///Users/ggeoffroy/Documents/geoffroy.re/images/Whatsit.ly:11:62:63"
       style="color:inherit">
      <path
         id="path316"
         d="m 220,138 c 56,0 109,-29 109,-91 0,-72 -56,-121 -103,-149 -36,-21 -76,-36 -117,-36 -56,0 -109,29 -109,91 0,72 56,121 103,149 36,21 76,36 117,36 z"
         transform="matrix(0.004,0,0,-0.004,32.1364,23.3826)"
         inkscape:connector-curvature="0"
         style="fill:currentColor" />
    </a>
    <a
       id="a318"
       xlink:href="textedit:///Users/ggeoffroy/Documents/geoffroy.re/images/Whatsit.ly:11:65:66"
       style="color:inherit">
      <path
         id="path320"
         d="m 220,138 c 56,0 109,-29 109,-91 0,-72 -56,-121 -103,-149 -36,-21 -76,-36 -117,-36 -56,0 -109,29 -109,91 0,72 56,121 103,149 36,21 76,36 117,36 z"
         transform="matrix(0.004,0,0,-0.004,32.1364,24.3826)"
         inkscape:connector-curvature="0"
         style="fill:currentColor" />
    </a>
    <path
       id="rect322"
       d="m -0.025,-1.8036 0.05,0 c 0.02216,0 0.04,0.01784 0.04,0.04 l 0,5.5358 c 0,0.02216 -0.01784,0.04 -0.04,0.04 l -0.05,0 c -0.02216,0 -0.04,-0.01784 -0.04,-0.04 l 0,-5.5358 c 0,-0.02216 0.01784,-0.04 0.04,-0.04 z"
       style="fill:currentColor"
       transform="translate(33.3876,21.8826)"
       inkscape:connector-curvature="0" />
    <a
       id="a324"
       xlink:href="textedit:///Users/ggeoffroy/Documents/geoffroy.re/images/Whatsit.ly:11:70:71"
       style="color:inherit">
      <path
         id="path326"
         d="m 220,138 c 56,0 109,-29 109,-91 0,-72 -56,-121 -103,-149 -36,-21 -76,-36 -117,-36 -56,0 -109,29 -109,91 0,72 56,121 103,149 36,21 76,36 117,36 z"
         transform="matrix(0.004,0,0,-0.004,35.2273,23.8826)"
         inkscape:connector-curvature="0"
         style="fill:currentColor" />
    </a>
    <path
       id="rect328"
       d="m -0.025,-1.5 0.05,0 c 0.02216,0 0.04,0.01784 0.04,0.04 l 0,3.2322001 c 0,0.02216 -0.01784,0.04 -0.04,0.04 l -0.05,0 c -0.02216,0 -0.04,-0.01784 -0.04,-0.04 l 0,-3.2322001 c 0,-0.02216 0.01784,-0.04 0.04,-0.04 z"
       style="fill:currentColor"
       transform="translate(36.4785,21.8826)"
       inkscape:connector-curvature="0" />
    <a
       id="a330"
       xlink:href="textedit:///Users/ggeoffroy/Documents/geoffroy.re/images/Whatsit.ly:11:73:74"
       style="color:inherit">
      <path
         id="path332"
         d="m 220,138 c 56,0 109,-29 109,-91 0,-72 -56,-121 -103,-149 -36,-21 -76,-36 -117,-36 -56,0 -109,29 -109,91 0,72 56,121 103,149 36,21 76,36 117,36 z"
         transform="matrix(0.004,0,0,-0.004,38.3182,24.3826)"
         inkscape:connector-curvature="0"
         style="fill:currentColor" />
    </a>
    <path
       id="rect334"
       d="m -0.025,-1.1964 0.05,0 c 0.02216,0 0.04,0.01784 0.04,0.04 l 0,3.4286 c 0,0.02216 -0.01784,0.04 -0.04,0.04 l -0.05,0 c -0.02216,0 -0.04,-0.01784 -0.04,-0.04 l 0,-3.4286 c 0,-0.02216 0.01784,-0.04 0.04,-0.04 z"
       style="fill:currentColor"
       transform="translate(39.5694,21.8826)"
       inkscape:connector-curvature="0" />
    <a
       id="a336"
       xlink:href="textedit:///Users/ggeoffroy/Documents/geoffroy.re/images/Whatsit.ly:12:2:3"
       style="color:inherit">
      <path
         id="path338"
         d="m 220,138 c 56,0 109,-29 109,-91 0,-72 -56,-121 -103,-149 -36,-21 -76,-36 -117,-36 -56,0 -109,29 -109,91 0,72 56,121 103,149 36,21 76,36 117,36 z"
         transform="matrix(0.004,0,0,-0.004,43.1838,24.8826)"
         inkscape:connector-curvature="0"
         style="fill:currentColor" />
    </a>
    <path
       id="rect340"
       d="m -0.025,-0.81129998 0.05,0 c 0.02216,0 0.04,0.01784 0.04,0.04 l 0,3.54350008 c 0,0.02216 -0.01784,0.04 -0.04,0.04 l -0.05,0 c -0.02216,0 -0.04,-0.01784 -0.04,-0.04 l 0,-3.54350008 c 0,-0.02216 0.01784,-0.04 0.04,-0.04 z"
       style="fill:currentColor"
       transform="translate(44.435,21.8826)"
       inkscape:connector-curvature="0" />
    <path
       id="rect342"
       d="m -0.025,-0.99620003 0.05,0 c 0.02216,0 0.04,0.01784 0.04,0.04 l 0,3.72839993 c 0,0.02216 -0.01784,0.04 -0.04,0.04 l -0.05,0 c -0.02216,0 -0.04,-0.01784 -0.04,-0.04 l 0,-3.72839993 c 0,-0.02216 0.01784,-0.04 0.04,-0.04 z"
       style="fill:currentColor"
       transform="translate(74.4756,21.8826)"
       inkscape:connector-curvature="0" />
    <a
       id="a344"
       xlink:href="textedit:///Users/ggeoffroy/Documents/geoffroy.re/images/Whatsit.ly:12:44:45"
       style="color:inherit">
      <path
         id="path346"
         d="m 220,138 c 56,0 109,-29 109,-91 0,-72 -56,-121 -103,-149 -36,-21 -76,-36 -117,-36 -56,0 -109,29 -109,91 0,72 56,121 103,149 36,21 76,36 117,36 z"
         transform="matrix(0.004,0,0,-0.004,76.3154,24.3826)"
         inkscape:connector-curvature="0"
         style="fill:currentColor" />
    </a>
    <path
       id="rect348"
       d="m -0.025,-0.81379998 0.05,0 c 0.02216,0 0.04,0.01784 0.04,0.04 l 0,3.04599998 c 0,0.02216 -0.01784,0.04 -0.04,0.04 l -0.05,0 c -0.02216,0 -0.04,-0.01784 -0.04,-0.04 l 0,-3.04599998 c 0,-0.02216 0.01784,-0.04 0.04,-0.04 z"
       style="fill:currentColor"
       transform="translate(77.5665,21.8826)"
       inkscape:connector-curvature="0" />
    <a
       id="a350"
       xlink:href="textedit:///Users/ggeoffroy/Documents/geoffroy.re/images/Whatsit.ly:12:46:47"
       style="color:inherit">
      <path
         id="path352"
         d="m 220,138 c 56,0 109,-29 109,-91 0,-72 -56,-121 -103,-149 -36,-21 -76,-36 -117,-36 -56,0 -109,29 -109,91 0,72 56,121 103,149 36,21 76,36 117,36 z"
         transform="matrix(0.004,0,0,-0.004,79.4063,24.8826)"
         inkscape:connector-curvature="0"
         style="fill:currentColor" />
    </a>
    <path
       id="polygon354"
       d="m 3.1809,-0.01 0,0.4 L 0.04,0.2 l 0,-0.4 z"
       style="fill:currentColor;stroke:currentColor;stroke-width:0.08;stroke-linecap:round;stroke-linejoin:round"
       transform="translate(74.4106,20.8826)"
       inkscape:connector-curvature="0" />
    <path
       id="polygon356"
       d="m 3.1809,-0.01 0,0.4 L 0.04,0.2 l 0,-0.4 z"
       style="fill:currentColor;stroke:currentColor;stroke-width:0.08;stroke-linecap:round;stroke-linejoin:round"
       transform="translate(74.4106,21.6926)"
       inkscape:connector-curvature="0" />
    <path
       id="polygon358"
       d="m 4.7056,0.42 0,0.4 L 0.04,0.2 l 0,-0.4 z"
       style="fill:currentColor;stroke:currentColor;stroke-width:0.08;stroke-linecap:round;stroke-linejoin:round"
       transform="translate(64.9294,20.0726)"
       inkscape:connector-curvature="0" />
    <a
       id="a360"
       xlink:href="textedit:///Users/ggeoffroy/Documents/geoffroy.re/images/Whatsit.ly:12:33:34"
       style="color:inherit">
      <path
         id="path362"
         d="M 1.651178,0.775 C 2.3951664,0.02055253 4.5797102,0.02055253 5.3236987,0.775 4.5797102,0.14055253 2.3951664,0.14055253 1.651178,0.775 Z"
         transform="translate(68.3589,21.8826)"
         inkscape:connector-curvature="0"
         style="fill:currentColor;stroke:currentColor;stroke-width:0.08;stroke-linecap:round;stroke-linejoin:round" />
    </a>
    <a
       id="a364"
       xlink:href="textedit:///Users/ggeoffroy/Documents/geoffroy.re/images/Whatsit.ly:12:30:31"
       style="color:inherit">
      <path
         id="path366"
         d="M 0.858089,4 C 1.6954738,4.8024862 4.4863139,4.8024862 5.3236987,4 4.4863139,4.6824862 1.6954738,4.6824862 0.858089,4 Z"
         transform="translate(68.3589,21.8826)"
         inkscape:connector-curvature="0"
         style="fill:currentColor;stroke:currentColor;stroke-width:0.08;stroke-linecap:round;stroke-linejoin:round" />
    </a>
    <path
       id="polygon368"
       d="m 9.3627,-0.39 0,0.4 -9.3227,0.19 0,-0.4 z"
       style="fill:currentColor;stroke:currentColor;stroke-width:0.08;stroke-linecap:round;stroke-linejoin:round"
       transform="translate(44.37,21.0726)"
       inkscape:connector-curvature="0" />
    <path
       id="polygon370"
       d="m 9.3627,-0.39 0,0.4 -9.3227,0.19 0,-0.4 z"
       style="fill:currentColor;stroke:currentColor;stroke-width:0.08;stroke-linecap:round;stroke-linejoin:round"
       transform="translate(44.37,21.8826)"
       inkscape:connector-curvature="0" />
    <path
       id="polygon372"
       d="m 6.2718,0.42 0,0.4 L 0.04,0.2 l 0,-0.4 z"
       style="fill:currentColor;stroke:currentColor;stroke-width:0.08;stroke-linecap:round;stroke-linejoin:round"
       transform="translate(33.3226,20.0726)"
       inkscape:connector-curvature="0" />
    <path
       id="polygon374"
       d="m 3.1809,0.1164 0,0.4 L 0.04,0.2 l 0,-0.4 z"
       style="fill:currentColor;stroke:currentColor;stroke-width:0.08;stroke-linecap:round;stroke-linejoin:round"
       transform="translate(33.3226,20.8826)"
       inkscape:connector-curvature="0" />
    <path
       id="polygon376"
       d="m 4.9556,-0.01 0,0.4 L 0.04,0.2 l 0,-0.4 z"
       style="fill:currentColor;stroke:currentColor;stroke-width:0.08;stroke-linecap:round;stroke-linejoin:round"
       transform="translate(23.5914,19.8826)"
       inkscape:connector-curvature="0" />
    <a
       id="a378"
       xlink:href="textedit:///Users/ggeoffroy/Documents/geoffroy.re/images/Whatsit.ly:11:54:55"
       style="color:inherit">
      <path
         id="path380"
         d="m 1.651178,0.7735045 c 0.7439884,-0.75444747 2.9285322,-0.75444747 3.6725207,0 -0.7439885,-0.63444747 -2.9285323,-0.63444747 -3.6725207,0 z"
         transform="translate(27.2708,21.8826)"
         inkscape:connector-curvature="0"
         style="fill:currentColor;stroke:currentColor;stroke-width:0.08;stroke-linecap:round;stroke-linejoin:round" />
    </a>
    <a
       id="a382"
       xlink:href="textedit:///Users/ggeoffroy/Documents/geoffroy.re/images/Whatsit.ly:11:50:51"
       style="color:inherit">
      <path
         id="path384"
         d="m 0.858089,4.75 c 0.8373848,0.8024862 3.6282249,0.8024862 4.4656097,0 -0.8373848,0.6824862 -3.6282249,0.6824862 -4.4656097,0 z"
         transform="translate(27.2708,21.8826)"
         inkscape:connector-curvature="0"
         style="fill:currentColor;stroke:currentColor;stroke-width:0.08;stroke-linecap:round;stroke-linejoin:round" />
    </a>
    <path
       id="polygon386"
       d="m 5.9938,-0.2 0,0.4 -5.9538,0 0,-0.4 z"
       style="fill:currentColor;stroke:currentColor;stroke-width:0.08;stroke-linecap:round;stroke-linejoin:round"
       transform="translate(14.5967,19.8826)"
       inkscape:connector-curvature="0" />
    <path
       id="polygon388"
       d="m 1.125,-0.2 0,0.4 -1.085,0 0,-0.4 z"
       style="fill:currentColor;stroke:currentColor;stroke-width:0.08;stroke-linecap:round;stroke-linejoin:round"
       transform="translate(19.4655,20.6926)"
       inkscape:connector-curvature="0" />
    <a
       id="a390"
       xlink:href="textedit:///Users/ggeoffroy/Documents/geoffroy.re/images/Whatsit.ly:11:32:33"
       style="color:inherit">
      <path
         id="path392"
         d="m 1.651178,-0.225 c 0.4687208,-0.5576661 1.429084,-0.5576661 1.8978048,0 -0.4687208,-0.4376661 -1.429084,-0.4376661 -1.8978048,0 z"
         transform="translate(19.3143,21.8826)"
         inkscape:connector-curvature="0"
         style="fill:currentColor;stroke:currentColor;stroke-width:0.08;stroke-linecap:round;stroke-linejoin:round" />
    </a>
    <a
       id="a394"
       xlink:href="textedit:///Users/ggeoffroy/Documents/geoffroy.re/images/Whatsit.ly:11:29:30"
       style="color:inherit">
      <path
         id="path396"
         d="M 1.651178,2.5 C 1.9844477,2.9262442 2.5576242,2.9262442 2.8908938,2.5 2.5576242,2.8062442 1.9844477,2.8062442 1.651178,2.5 Z"
         transform="translate(19.3143,21.8826)"
         inkscape:connector-curvature="0"
         style="fill:currentColor;stroke:currentColor;stroke-width:0.08;stroke-linecap:round;stroke-linejoin:round" />
    </a>
    <a
       id="a398"
       xlink:href="textedit:///Users/ggeoffroy/Documents/geoffroy.re/images/Whatsit.ly:11:26:27"
       style="color:inherit">
      <path
         id="path400"
         d="M 0.858089,4 C 1.4634036,4.6667528 2.9436683,4.6667528 3.5489828,4 2.9436683,4.5467528 1.4634036,4.5467528 0.858089,4 Z"
         transform="translate(19.3143,21.8826)"
         inkscape:connector-curvature="0"
         style="fill:currentColor;stroke:currentColor;stroke-width:0.08;stroke-linecap:round;stroke-linejoin:round" />
    </a>
    <path
       id="rect402"
       d="m -0.025,-2 0.05,0 c 0.02216,0 0.04,0.01784 0.04,0.04 l 0,5.2322001 c 0,0.02216 -0.01784,0.04 -0.04,0.04 l -0.05,0 c -0.02216,0 -0.04,-0.01784 -0.04,-0.04 l 0,-5.2322001 c 0,-0.02216 0.01784,-0.04 0.04,-0.04 z"
       style="fill:currentColor"
       transform="translate(58.3541,21.8826)"
       inkscape:connector-curvature="0" />
    <a
       id="a404"
       xlink:href="textedit:///Users/ggeoffroy/Documents/geoffroy.re/images/Whatsit.ly:12:23:24"
       style="color:inherit">
      <path
         id="path406"
         d="m 220,138 c 56,0 109,-29 109,-91 0,-72 -56,-121 -103,-149 -36,-21 -76,-36 -117,-36 -56,0 -109,29 -109,91 0,72 56,121 103,149 36,21 76,36 117,36 z"
         transform="matrix(0.004,0,0,-0.004,63.7432,22.8826)"
         inkscape:connector-curvature="0"
         style="fill:currentColor" />
    </a>
    <path
       id="rect408"
       d="m -0.025,-1.8015 0.05,0 c 0.02216,0 0.04,0.01784 0.04,0.04 l 0,2.53369995 c 0,0.02216 -0.01784,0.04 -0.04,0.04 l -0.05,0 c -0.02216,0 -0.04,-0.01784 -0.04,-0.04 l 0,-2.53369995 c 0,-0.02216 0.01784,-0.04 0.04,-0.04 z"
       style="fill:currentColor"
       transform="translate(64.9944,21.8826)"
       inkscape:connector-curvature="0" />
    <a
       id="a410"
       xlink:href="textedit:///Users/ggeoffroy/Documents/geoffroy.re/images/Whatsit.ly:12:28:29"
       style="color:inherit">
      <path
         id="path412"
         d="m 220,138 c 56,0 109,-29 109,-91 0,-72 -56,-121 -103,-149 -36,-21 -76,-36 -117,-36 -56,0 -109,29 -109,91 0,72 56,121 103,149 36,21 76,36 117,36 z"
         transform="matrix(0.004,0,0,-0.004,68.3589,24.8826)"
         inkscape:connector-curvature="0"
         style="fill:currentColor" />
    </a>
    <a
       id="a414"
       xlink:href="textedit:///Users/ggeoffroy/Documents/geoffroy.re/images/Whatsit.ly:12:32:33"
       style="color:inherit">
      <path
         id="path416"
         d="m 220,138 c 56,0 109,-29 109,-91 0,-72 -56,-121 -103,-149 -36,-21 -76,-36 -117,-36 -56,0 -109,29 -109,91 0,72 56,121 103,149 36,21 76,36 117,36 z"
         transform="matrix(0.004,0,0,-0.004,68.3589,23.8826)"
         inkscape:connector-curvature="0"
         style="fill:currentColor" />
    </a>
    <path
       id="rect418"
       d="m -0.025,-1.1985 0.05,0 c 0.02216,0 0.04,0.01784 0.04,0.04 l 0,3.9307002 c 0,0.02216 -0.01784,0.04 -0.04,0.04 l -0.05,0 c -0.02216,0 -0.04,-0.01784 -0.04,-0.04 l 0,-3.9307002 c 0,-0.02216 0.01784,-0.04 0.04,-0.04 z"
       style="fill:currentColor"
       transform="translate(69.61,21.8826)"
       inkscape:connector-curvature="0" />
    <a
       id="a420"
       xlink:href="textedit:///Users/ggeoffroy/Documents/geoffroy.re/images/Whatsit.ly:12:37:38"
       style="color:inherit">
      <path
         id="path422"
         d="m 220,138 c 56,0 109,-29 109,-91 0,-72 -56,-121 -103,-149 -36,-21 -76,-36 -117,-36 -56,0 -109,29 -109,91 0,72 56,121 103,149 36,21 76,36 117,36 z"
         transform="matrix(0.004,0,0,-0.004,73.2245,24.8826)"
         inkscape:connector-curvature="0"
         style="fill:currentColor" />
    </a>
    <a
       id="a424"
       xlink:href="textedit:///Users/ggeoffroy/Documents/geoffroy.re/images/Whatsit.ly:12:39:40"
       style="color:inherit">
      <path
         id="path426"
         d="m 220,138 c 56,0 109,-29 109,-91 0,-72 -56,-121 -103,-149 -36,-21 -76,-36 -117,-36 -56,0 -109,29 -109,91 0,72 56,121 103,149 36,21 76,36 117,36 z"
         transform="matrix(0.004,0,0,-0.004,73.2245,23.8826)"
         inkscape:connector-curvature="0"
         style="fill:currentColor" />
    </a>
    <path
       id="rect428"
       d="m -0.025,-2.5 0.05,0 c 0.02216,0 0.04,0.01784 0.04,0.04 l 0,6.2322001 c 0,0.02216 -0.01784,0.04 -0.04,0.04 l -0.05,0 c -0.02216,0 -0.04,-0.01784 -0.04,-0.04 l 0,-6.2322001 c 0,-0.02216 0.01784,-0.04 0.04,-0.04 z"
       style="fill:currentColor"
       transform="translate(93.4689,21.8826)"
       inkscape:connector-curvature="0" />
    <a
       id="a430"
       xlink:href="textedit:///Users/ggeoffroy/Documents/geoffroy.re/images/Whatsit.ly:12:65:66"
       style="color:inherit">
      <path
         id="path432"
         d="m 315,65 c 0,24 -21,41 -42,41 -4,0 -8,0 -12,-1 C 230,96 184,65 147,41 110,17 63,-12 43,-37 36,-45 32,-55 32,-65 c 0,-24 21,-41 42,-41 4,0 8,0 12,1 31,9 78,40 115,64 37,24 84,53 104,78 7,8 10,18 10,28 z m -51,72 c 47,0 83,-21 83,-72 0,-19 -4,-37 -10,-56 -12,-38 -32,-74 -65,-96 -54,-36 -113,-51 -188,-51 -47,0 -84,22 -84,73 0,19 5,37 11,56 12,38 31,74 64,96 54,36 114,50 189,50 z"
         transform="matrix(0.004,0,0,-0.004,98.858,25.8826)"
         inkscape:connector-curvature="0"
         style="fill:currentColor" />
    </a>
    <a
       id="a434"
       xlink:href="textedit:///Users/ggeoffroy/Documents/geoffroy.re/images/Whatsit.ly:12:67:68"
       style="color:inherit">
      <path
         id="path436"
         d="m 315,65 c 0,24 -21,41 -42,41 -4,0 -8,0 -12,-1 C 230,96 184,65 147,41 110,17 63,-12 43,-37 36,-45 32,-55 32,-65 c 0,-24 21,-41 42,-41 4,0 8,0 12,1 31,9 78,40 115,64 37,24 84,53 104,78 7,8 10,18 10,28 z m -51,72 c 47,0 83,-21 83,-72 0,-19 -4,-37 -10,-56 -12,-38 -32,-74 -65,-96 -54,-36 -113,-51 -188,-51 -47,0 -84,22 -84,73 0,19 5,37 11,56 12,38 31,74 64,96 54,36 114,50 189,50 z"
         transform="matrix(0.004,0,0,-0.004,98.858,24.3826)"
         inkscape:connector-curvature="0"
         style="fill:currentColor" />
    </a>
    <a
       id="a438"
       xlink:href="textedit:///Users/ggeoffroy/Documents/geoffroy.re/images/Whatsit.ly:12:69:70"
       style="color:inherit">
      <path
         id="path440"
         d="m 315,65 c 0,24 -21,41 -42,41 -4,0 -8,0 -12,-1 C 230,96 184,65 147,41 110,17 63,-12 43,-37 36,-45 32,-55 32,-65 c 0,-24 21,-41 42,-41 4,0 8,0 12,1 31,9 78,40 115,64 37,24 84,53 104,78 7,8 10,18 10,28 z m -51,72 c 47,0 83,-21 83,-72 0,-19 -4,-37 -10,-56 -12,-38 -32,-74 -65,-96 -54,-36 -113,-51 -188,-51 -47,0 -84,22 -84,73 0,19 5,37 11,56 12,38 31,74 64,96 54,36 114,50 189,50 z"
         transform="matrix(0.004,0,0,-0.004,98.858,23.3826)"
         inkscape:connector-curvature="0"
         style="fill:currentColor" />
    </a>
    <path
       id="rect442"
       d="m -0.025,-2 0.05,0 c 0.02216,0 0.04,0.01784 0.04,0.04 l 0,5.6585998 c 0,0.02216 -0.01784,0.04 -0.04,0.04 l -0.05,0 c -0.02216,0 -0.04,-0.01784 -0.04,-0.04 l 0,-5.6585998 c 0,-0.02216 0.01784,-0.04 0.04,-0.04 z"
       style="fill:currentColor"
       transform="translate(100.183,21.8826)"
       inkscape:connector-curvature="0" />
    <a
       id="a444"
       xlink:href="textedit:///Users/ggeoffroy/Documents/geoffroy.re/images/Whatsit.ly:12:73:74"
       style="color:inherit">
      <path
         id="path446"
         d="m -23,-116 c 0,28 11,42 40,42 33,0 78,-13 119,-31 L 4,53 c -7,9 -10,17 -10,25 0,34 50,66 87,99 25,22 37,52 37,83 0,24 -8,49 -25,69 l -35,42 c -3,3 -4,7 -4,10 0,9 9,15 17,15 4,0 8,-1 11,-5 L 233,211 c 7,-9 10,-17 10,-25 0,-34 -50,-66 -87,-99 -25,-22 -37,-52 -37,-83 0,-24 7,-49 24,-69 l 84,-99 c 3,-3 4,-7 4,-10 0,-9 -8,-16 -16,-16 -4,0 -9,2 -12,6 -18,21 -63,38 -97,38 -41,0 -53,-26 -53,-67 0,-35 11,-74 28,-94 5,-6 0,-13 -6,-13 -2,0 -4,0 -6,2 -45,54 -92,148 -92,202 z"
         transform="matrix(0.004,0,0,-0.004,107.3469,21.8826)"
         inkscape:connector-curvature="0"
         style="fill:currentColor" />
    </a>
    <g
       id="text448"
       style="font-size:1.74609995px;font-family:'Century Schoolbook L';text-anchor:start;fill:currentColor"
       transform="translate(4.7345,18.7985)">
      <path
         id="path4699"
         d="m 0.61386326,-0.63006243 q 0.12192007,0.0298406 0.1901271,0.0989002 0.086964,0.0878166 0.086964,0.21740991 0,0.14664511 -0.10401572,0.23531425 -0.11850971,0.10231054 -0.30863681,0.10231054 -0.11424677,0 -0.19694779,-0.03751387 -0.0818484,-0.03751386 -0.12277266,-0.10145795 -0.0409242,-0.0639441 -0.0409242,-0.14408735 0,-0.0647967 0.0315458,-0.10231055 0.0315457,-0.0375139 0.0792907,-0.0375139 0.043482,0 0.0699122,0.028988 0.0264302,0.0281354 0.0264302,0.0775855 0,0.0315457 -0.0136414,0.053713 -0.0136414,0.0213147 -0.0477449,0.0400716 -0.0366613,0.0196095 -0.0366613,0.0375139 0,0.0255776 0.0255776,0.057976 0.0264302,0.03154575 0.0767329,0.05115527 0.0511553,0.01875693 0.12874076,0.01875693 0.1338563,0 0.19780039,-0.06564926 0.0647967,-0.06650186 0.0647967,-0.21229438 0,-0.15261323 -0.0554182,-0.21655732 -0.0545656,-0.0647967 -0.16284429,-0.0647967 -0.028988,0 -0.07247,0.006821 -0.0349561,0.005116 -0.0503027,0.005116 -0.0255776,0 -0.0400716,-0.0102311 -0.0136414,-0.0110836 -0.0136414,-0.0272828 0,-0.0179044 0.0127888,-0.0272828 0.0136414,-0.0102311 0.043482,-0.0102311 l 0.0468923,0.001705 0.0409242,0.001705 q 0.10827866,0 0.16284429,-0.0554182 0.0545656,-0.0554182 0.0545656,-0.17137016 0,-0.14238223 -0.0520079,-0.20206333 -0.0520079,-0.060534 -0.15517099,-0.060534 -0.0946372,0 -0.15090805,0.034104 -0.0562708,0.034104 -0.0562708,0.063092 0,0.018757 0.0323983,0.0503027 0.0460397,0.0426294 0.0460397,0.0886691 0,0.0349561 -0.0255776,0.0588286 -0.0255776,0.0238725 -0.0656493,0.0238725 -0.0426294,0 -0.0699122,-0.0323983 -0.0264302,-0.0323983 -0.0264302,-0.0903743 0,-0.0903744 0.0647967,-0.1602865 0.0920795,-0.0989 0.26344965,-0.0989 0.16028652,0 0.25577636,0.086111 0.0954898,0.086111 0.0954898,0.21314693 0,0.0912269 -0.0520079,0.15772875 -0.0511553,0.0665019 -0.17733828,0.11765713 z"
         inkscape:connector-curvature="0" />
    </g>
    <path
       id="path452"
       d="m 376,262 c 4,0 9,1 13,1 155,0 256,-128 256,-261 0,-76 -33,-154 -107,-210 -22,-17 -47,-28 -73,-36 3,-35 5,-70 5,-105 0,-19 -1,-39 -2,-58 -7,-120 -90,-228 -208,-228 -108,0 -195,88 -195,197 0,58 53,103 112,103 54,0 95,-47 95,-103 0,-52 -43,-95 -95,-95 -11,0 -21,2 -31,6 26,-39 68,-65 117,-65 96,0 157,92 163,191 1,18 2,37 2,55 0,31 -1,61 -4,92 -29,-5 -58,-8 -89,-8 -188,0 -333,172 -333,374 0,177 131,306 248,441 -19,62 -37,125 -45,190 -6,52 -7,104 -7,156 0,115 55,224 149,292 3,2 7,3 10,3 4,0 7,0 10,-3 71,-84 133,-245 133,-358 0,-143 -86,-255 -180,-364 21,-68 39,-138 56,-207 z m 85,-465 c 68,24 113,95 113,164 0,90 -66,179 -173,190 24,-116 46,-231 60,-354 z M 74,28 c 0,-135 129,-247 264,-247 28,0 55,2 82,6 C 406,-86 383,32 357,151 278,143 233,90 233,32 c 0,-44 25,-91 81,-123 5,-5 7,-10 7,-15 0,-11 -10,-22 -22,-22 -3,0 -6,1 -9,2 -80,43 -117,115 -117,185 0,88 58,174 160,197 -14,58 -29,117 -46,175 C 180,310 74,188 74,28 Z M 408,1045 C 309,997 246,896 246,786 c 0,-74 18,-133 36,-194 80,97 146,198 146,324 0,55 -4,79 -20,129 z"
       transform="matrix(0.004,0,0,-0.004,6.4906,22.8826)"
       inkscape:connector-curvature="0"
       style="fill:currentColor" />
    <path
       id="path454"
       d="m 27,41 -1,-66 0,-11 c 0,-22 1,-44 4,-66 45,38 93,80 93,139 0,33 -14,67 -43,67 C 49,104 28,74 27,41 Z m -42,-179 -12,595 c 8,5 18,8 27,8 9,0 19,-3 27,-8 L 20,112 c 25,21 58,34 91,34 52,0 89,-48 89,-102 0,-80 -86,-117 -147,-169 -15,-13 -24,-38 -45,-38 -13,0 -23,11 -23,25 z"
       transform="matrix(0.004,0,0,-0.004,10.1106,21.8826)"
       inkscape:connector-curvature="0"
       style="fill:currentColor" />
    <path
       id="rect456"
       d="m -0.025,-0.5 0.05,0 c 0.02216,0 0.04,0.01784 0.04,0.04 l 0,3.2322001 c 0,0.02216 -0.01784,0.04 -0.04,0.04 l -0.05,0 c -0.02216,0 -0.04,-0.01784 -0.04,-0.04 l 0,-3.2322001 c 0,-0.02216 0.01784,-0.04 0.04,-0.04 z"
       style="fill:currentColor"
       transform="translate(80.6574,21.8826)"
       inkscape:connector-curvature="0" />
    <a
       id="a458"
       xlink:href="textedit:///Users/ggeoffroy/Documents/geoffroy.re/images/Whatsit.ly:12:49:50"
       style="color:inherit">
      <path
         id="path460"
         d="m 220,138 c 56,0 109,-29 109,-91 0,-72 -56,-121 -103,-149 -36,-21 -76,-36 -117,-36 -56,0 -109,29 -109,91 0,72 56,121 103,149 36,21 76,36 117,36 z"
         transform="matrix(0.004,0,0,-0.004,86.0466,24.8826)"
         inkscape:connector-curvature="0"
         style="fill:currentColor" />
    </a>
    <path
       id="rect462"
       d="m -0.025,-0.5 0.05,0 c 0.02216,0 0.04,0.01784 0.04,0.04 l 0,3.2322001 c 0,0.02216 -0.01784,0.04 -0.04,0.04 l -0.05,0 c -0.02216,0 -0.04,-0.01784 -0.04,-0.04 l 0,-3.2322001 c 0,-0.02216 0.01784,-0.04 0.04,-0.04 z"
       style="fill:currentColor"
       transform="translate(87.2978,21.8826)"
       inkscape:connector-curvature="0" />
    <path
       id="path464"
       d="m 0,0 c 0,-198 209,-335 209,-533 0,-71 -16,-141 -42,-207 -5,-8 -12,-12 -19,-12 -13,0 -26,11 -23,27 26,61 42,126 42,192 0,104 -95,208 -167,283 l -16,0 0,250 16,0 z"
       transform="matrix(0.004,0,0,-0.004,87.3628,21.4226)"
       inkscape:connector-curvature="0"
       style="fill:currentColor" />
    <a
       id="a466"
       xlink:href="textedit:///Users/ggeoffroy/Documents/geoffroy.re/images/Whatsit.ly:12:53:54"
       style="color:inherit">
      <path
         id="path468"
         d="m 220,138 c 56,0 109,-29 109,-91 0,-72 -56,-121 -103,-149 -36,-21 -76,-36 -117,-36 -56,0 -109,29 -109,91 0,72 56,121 103,149 36,21 76,36 117,36 z"
         transform="matrix(0.004,0,0,-0.004,92.2177,25.8826)"
         inkscape:connector-curvature="0"
         style="fill:currentColor" />
    </a>
    <a
       id="a470"
       xlink:href="textedit:///Users/ggeoffroy/Documents/geoffroy.re/images/Whatsit.ly:12:55:56"
       style="color:inherit">
      <path
         id="path472"
         d="m 220,138 c 56,0 109,-29 109,-91 0,-72 -56,-121 -103,-149 -36,-21 -76,-36 -117,-36 -56,0 -109,29 -109,91 0,72 56,121 103,149 36,21 76,36 117,36 z"
         transform="matrix(0.004,0,0,-0.004,92.2177,24.8826)"
         inkscape:connector-curvature="0"
         style="fill:currentColor" />
    </a>
    <a
       id="a474"
       xlink:href="textedit:///Users/ggeoffroy/Documents/geoffroy.re/images/Whatsit.ly:12:57:58"
       style="color:inherit">
      <path
         id="path476"
         d="m 220,138 c 56,0 109,-29 109,-91 0,-72 -56,-121 -103,-149 -36,-21 -76,-36 -117,-36 -56,0 -109,29 -109,91 0,72 56,121 103,149 36,21 76,36 117,36 z"
         transform="matrix(0.004,0,0,-0.004,92.2177,22.8826)"
         inkscape:connector-curvature="0"
         style="fill:currentColor" />
    </a>
    <a
       id="a478"
       xlink:href="textedit:///Users/ggeoffroy/Documents/geoffroy.re/images/Whatsit.ly:12:61:62"
       style="color:inherit">
      <path
         id="path480"
         d="M -50,0 C -50,28 -28,50 0,50 28,50 50,28 50,0 50,-28 28,-50 0,-50 -28,-50 -50,-28 -50,0 Z"
         transform="matrix(0.004,0,0,-0.004,92.8758,26.8326)"
         inkscape:connector-curvature="0"
         style="fill:currentColor" />
    </a>
    <a
       id="a482"
       xlink:href="textedit:///Users/ggeoffroy/Documents/geoffroy.re/images/Whatsit.ly:11:25:26"
       style="color:inherit">
      <path
         id="path484"
         d="m 220,138 c 56,0 109,-29 109,-91 0,-72 -56,-121 -103,-149 -36,-21 -76,-36 -117,-36 -56,0 -109,29 -109,91 0,72 56,121 103,149 36,21 76,36 117,36 z"
         transform="matrix(0.004,0,0,-0.004,19.3143,24.8826)"
         inkscape:connector-curvature="0"
         style="fill:currentColor" />
    </a>
    <a
       id="a486"
       xlink:href="textedit:///Users/ggeoffroy/Documents/geoffroy.re/images/Whatsit.ly:11:28:29"
       style="color:inherit">
      <path
         id="path488"
         d="m 220,138 c 56,0 109,-29 109,-91 0,-72 -56,-121 -103,-149 -36,-21 -76,-36 -117,-36 -56,0 -109,29 -109,91 0,72 56,121 103,149 36,21 76,36 117,36 z"
         transform="matrix(0.004,0,0,-0.004,19.3143,23.8826)"
         inkscape:connector-curvature="0"
         style="fill:currentColor" />
    </a>
    <a
       id="a490"
       xlink:href="textedit:///Users/ggeoffroy/Documents/geoffroy.re/images/Whatsit.ly:11:31:32"
       style="color:inherit">
      <path
         id="path492"
         d="m 220,138 c 56,0 109,-29 109,-91 0,-72 -56,-121 -103,-149 -36,-21 -76,-36 -117,-36 -56,0 -109,29 -109,91 0,72 56,121 103,149 36,21 76,36 117,36 z"
         transform="matrix(0.004,0,0,-0.004,19.3143,22.8826)"
         inkscape:connector-curvature="0"
         style="fill:currentColor" />
    </a>
    <a
       id="a494"
       xlink:href="textedit:///Users/ggeoffroy/Documents/geoffroy.re/images/Whatsit.ly:11:36:37"
       style="color:inherit">
      <path
         id="path496"
         d="M -50,0 C -50,28 -28,50 0,50 28,50 50,28 50,0 50,-28 28,-50 0,-50 -28,-50 -50,-28 -50,0 Z"
         transform="matrix(0.004,0,0,-0.004,19.9724,26.5801)"
         inkscape:connector-curvature="0"
         style="fill:currentColor" />
    </a>
    <path
       id="rect498"
       d="m -0.025,-2 0.05,0 c 0.02216,0 0.04,0.01784 0.04,0.04 l 0,4.7322001 c 0,0.02216 -0.01784,0.04 -0.04,0.04 l -0.05,0 c -0.02216,0 -0.04,-0.01784 -0.04,-0.04 l 0,-4.7322001 c 0,-0.02216 0.01784,-0.04 0.04,-0.04 z"
       style="fill:currentColor"
       transform="translate(20.5655,21.8826)"
       inkscape:connector-curvature="0" />
    <a
       id="a500"
       xlink:href="textedit:///Users/ggeoffroy/Documents/geoffroy.re/images/Whatsit.ly:11:40:41"
       style="color:inherit">
      <path
         id="path502"
         d="m 220,138 c 56,0 109,-29 109,-91 0,-72 -56,-121 -103,-149 -36,-21 -76,-36 -117,-36 -56,0 -109,29 -109,91 0,72 56,121 103,149 36,21 76,36 117,36 z"
         transform="matrix(0.004,0,0,-0.004,22.4052,24.8826)"
         inkscape:connector-curvature="0"
         style="fill:currentColor" />
    </a>
    <a
       id="a504"
       xlink:href="textedit:///Users/ggeoffroy/Documents/geoffroy.re/images/Whatsit.ly:11:42:43"
       style="color:inherit">
      <path
         id="path506"
         d="m 220,138 c 56,0 109,-29 109,-91 0,-72 -56,-121 -103,-149 -36,-21 -76,-36 -117,-36 -56,0 -109,29 -109,91 0,72 56,121 103,149 36,21 76,36 117,36 z"
         transform="matrix(0.004,0,0,-0.004,22.4052,23.8826)"
         inkscape:connector-curvature="0"
         style="fill:currentColor" />
    </a>
    <a
       id="a508"
       xlink:href="textedit:///Users/ggeoffroy/Documents/geoffroy.re/images/Whatsit.ly:11:44:45"
       style="color:inherit">
      <path
         id="path510"
         d="m 220,138 c 56,0 109,-29 109,-91 0,-72 -56,-121 -103,-149 -36,-21 -76,-36 -117,-36 -56,0 -109,29 -109,91 0,72 56,121 103,149 36,21 76,36 117,36 z"
         transform="matrix(0.004,0,0,-0.004,22.4052,22.8826)"
         inkscape:connector-curvature="0"
         style="fill:currentColor" />
    </a>
    <path
       id="rect512"
       d="m -0.025,-1.9974999 0.05,0 c 0.02216,0 0.04,0.01784 0.04,0.04 l 0,4.7297 c 0,0.02216 -0.01784,0.04 -0.04,0.04 l -0.05,0 c -0.02216,0 -0.04,-0.01784 -0.04,-0.04 l 0,-4.7297 c 0,-0.02216 0.01784,-0.04 0.04,-0.04 z"
       style="fill:currentColor"
       transform="translate(23.6564,21.8826)"
       inkscape:connector-curvature="0" />
    <a
       id="a514"
       xlink:href="textedit:///Users/ggeoffroy/Documents/geoffroy.re/images/Whatsit.ly:11:49:50"
       style="color:inherit">
      <path
         id="path516"
         d="m 220,138 c 56,0 109,-29 109,-91 0,-72 -56,-121 -103,-149 -36,-21 -76,-36 -117,-36 -56,0 -109,29 -109,91 0,72 56,121 103,149 36,21 76,36 117,36 z"
         transform="matrix(0.004,0,0,-0.004,27.2708,25.8826)"
         inkscape:connector-curvature="0"
         style="fill:currentColor" />
    </a>
    <a
       id="a518"
       xlink:href="textedit:///Users/ggeoffroy/Documents/geoffroy.re/images/Whatsit.ly:11:52:53"
       style="color:inherit">
      <path
         id="path520"
         d="m 220,138 c 56,0 109,-29 109,-91 0,-72 -56,-121 -103,-149 -36,-21 -76,-36 -117,-36 -56,0 -109,29 -109,91 0,72 56,121 103,149 36,21 76,36 117,36 z"
         transform="matrix(0.004,0,0,-0.004,27.2708,23.3826)"
         inkscape:connector-curvature="0"
         style="fill:currentColor" />
    </a>
    <a
       id="a522"
       xlink:href="textedit:///Users/ggeoffroy/Documents/geoffroy.re/images/Whatsit.ly:11:56:57"
       style="color:inherit">
      <path
         id="path524"
         d="m 220,138 c 56,0 109,-29 109,-91 0,-72 -56,-121 -103,-149 -36,-21 -76,-36 -117,-36 -56,0 -109,29 -109,91 0,72 56,121 103,149 36,21 76,36 117,36 z"
         transform="matrix(0.004,0,0,-0.004,27.2708,24.3826)"
         inkscape:connector-curvature="0"
         style="fill:currentColor" />
    </a>
    <path
       id="rect526"
       d="m -0.025,-1.8125 0.05,0 c 0.02216,0 0.04,0.01784 0.04,0.04 l 0,5.5447001 c 0,0.02216 -0.01784,0.04 -0.04,0.04 l -0.05,0 c -0.02216,0 -0.04,-0.01784 -0.04,-0.04 l 0,-5.5447001 c 0,-0.02216 0.01784,-0.04 0.04,-0.04 z"
       style="fill:currentColor"
       transform="translate(28.522,21.8826)"
       inkscape:connector-curvature="0" />
    <a
       id="a528"
       xlink:href="textedit:///Users/ggeoffroy/Documents/geoffroy.re/images/Whatsit.ly:11:13:14"
       style="color:inherit">
      <path
         id="path530"
         d="m 220,138 c 56,0 109,-29 109,-91 0,-72 -56,-121 -103,-149 -36,-21 -76,-36 -117,-36 -56,0 -109,29 -109,91 0,72 56,121 103,149 36,21 76,36 117,36 z"
         transform="matrix(0.004,0,0,-0.004,13.4106,24.8826)"
         inkscape:connector-curvature="0"
         style="fill:currentColor" />
    </a>
    <a
       id="a532"
       xlink:href="textedit:///Users/ggeoffroy/Documents/geoffroy.re/images/Whatsit.ly:11:15:16"
       style="color:inherit">
      <path
         id="path534"
         d="m 220,138 c 56,0 109,-29 109,-91 0,-72 -56,-121 -103,-149 -36,-21 -76,-36 -117,-36 -56,0 -109,29 -109,91 0,72 56,121 103,149 36,21 76,36 117,36 z"
         transform="matrix(0.004,0,0,-0.004,13.4106,23.8826)"
         inkscape:connector-curvature="0"
         style="fill:currentColor" />
    </a>
    <a
       id="a536"
       xlink:href="textedit:///Users/ggeoffroy/Documents/geoffroy.re/images/Whatsit.ly:11:17:18"
       style="color:inherit">
      <path
         id="path538"
         d="m 220,138 c 56,0 109,-29 109,-91 0,-72 -56,-121 -103,-149 -36,-21 -76,-36 -117,-36 -56,0 -109,29 -109,91 0,72 56,121 103,149 36,21 76,36 117,36 z"
         transform="matrix(0.004,0,0,-0.004,13.4106,22.8826)"
         inkscape:connector-curvature="0"
         style="fill:currentColor" />
    </a>
    <a
       id="a540"
       xlink:href="textedit:///Users/ggeoffroy/Documents/geoffroy.re/images/Whatsit.ly:11:21:22"
       style="color:inherit">
      <path
         id="path542"
         d="M -50,0 C -50,28 -28,50 0,50 28,50 50,28 50,0 50,-28 28,-50 0,-50 -28,-50 -50,-28 -50,0 Z"
         transform="matrix(0.004,0,0,-0.004,14.0687,25.8326)"
         inkscape:connector-curvature="0"
         style="fill:currentColor" />
    </a>
    <path
       id="path544"
       d="M 0,0 C 0,31 25,56 56,56 87,56 112,31 112,0 112,-31 87,-56 56,-56 25,-56 0,-31 0,0 Z"
       transform="matrix(0.004,0,0,-0.004,15.1767,24.3826)"
       inkscape:connector-curvature="0"
       style="fill:currentColor" />
    <path
       id="rect546"
       d="m -0.025,-2 0.05,0 c 0.02216,0 0.04,0.01784 0.04,0.04 l 0,4.7322001 c 0,0.02216 -0.01784,0.04 -0.04,0.04 l -0.05,0 c -0.02216,0 -0.04,-0.01784 -0.04,-0.04 l 0,-4.7322001 c 0,-0.02216 0.01784,-0.04 0.04,-0.04 z"
       style="fill:currentColor"
       transform="translate(14.6617,21.8826)"
       inkscape:connector-curvature="0" />
    <path
       id="path548"
       d="M 0,0 C 0,31 25,56 56,56 87,56 112,31 112,0 112,-31 87,-56 56,-56 25,-56 0,-31 0,0 Z"
       transform="matrix(0.004,0,0,-0.004,15.1767,22.3826)"
       inkscape:connector-curvature="0"
       style="fill:currentColor" />
    <path
       id="path550"
       d="M 0,0 C 0,31 25,56 56,56 87,56 112,31 112,0 112,-31 87,-56 56,-56 25,-56 0,-31 0,0 Z"
       transform="matrix(0.004,0,0,-0.004,15.1767,23.3826)"
       inkscape:connector-curvature="0"
       style="fill:currentColor" />
  </g>
  <a
     transform="translate(29.456219,164.13188)"
     xlink:href="http://lilypond.org/"
     id="a552">
    <rect
       x="0"
       y="-0.44389999"
       width="56.5755"
       height="2.0827"
       id="rect554"
       style="fill:none;stroke:none;stroke-width:0" />
  </a>
</svg>
